<?xml version="1.0" encoding="UTF-8"?> <svg xmlns="http://www.w3.org/2000/svg" viewBox="0 0 304.13 370.25"><defs><style>.cls-1{isolation:isolate;}.cls-2{fill:#d3d3d3;}.cls-3{fill:#5e4941;}.cls-4{fill:#fff;}.cls-5{fill:#bababa;mix-blend-mode:multiply;}.cls-6{fill:#ffdfc4;}.cls-7{fill:#f0d2bb;}.cls-8{fill:#332e55;}.cls-9{fill:#211e40;}.cls-10{fill:#dddde9;}.cls-11{fill:#242143;}.cls-12{fill:#3a3750;}.cls-13{fill:#ec4c77;}.cls-14{fill:#513e35;}.cls-15{fill:#424a7f;}.cls-16{fill:#4e5796;}.cls-17{fill:#564741;}.cls-18{fill:#f8d985;}.cls-19{fill:#f6d067;}.cls-20{fill:#f8e592;}.cls-21{fill:#5b4c48;}</style></defs><title>2_men_handshake_coin</title><g class="cls-1"><g id="Layer_6" data-name="Layer 6"><path class="cls-2" d="M299.25,358.86a537.8,537.8,0,0,0-79-5.87,555.65,555.65,0,0,0-73.44,5,465.32,465.32,0,0,0-67.15-5,450.68,450.68,0,0,0-72.22,5.87,450.68,450.68,0,0,0,72.22,5.87,463.41,463.41,0,0,0,67.15-5.05,553.37,553.37,0,0,0,73.44,5.05A537.8,537.8,0,0,0,299.25,358.86Z"></path><path class="cls-3" d="M74.24,325.93,62.16,325l1.06,16.69a3.38,3.38,0,0,0-.31.41c-2.2,3.38-3.25,15-3.25,15l12.27.93.47-3.71c4.42,3.78,20.49,5.47,33.76,6.22l.34-4.59c-15.57-4.65-30-15-31-16.16l0,0"></path><path class="cls-4" d="M74.31,325.76l-12.41-.94L63,342a2.29,2.29,0,0,0-.31.42c4.36.46,10.23-1.48,12.87-2.46"></path><rect class="cls-4" x="80.18" y="346.41" width="6.55" height="2.1" transform="translate(-240.48 196.59) rotate(-51.52)"></rect><rect class="cls-4" x="77.45" y="344.49" width="6.55" height="2.1" transform="translate(-240 193.72) rotate(-51.52)"></rect><rect class="cls-4" x="74.39" y="342.59" width="6.55" height="2.1" transform="translate(-239.68 190.61) rotate(-51.52)"></rect><path class="cls-5" d="M85.37,346.46l.78-1-1.64-1.3-1,1.21-1.06-.65.94-1.18-1.65-1.31-1.07,1.35-1.24-.81.89-1.13-1.64-1.3-1,1.23a19,19,0,0,1-2.42-1.89.16.16,0,0,1,0-.06c-.79-1.1-1.37-8.16-1.2-13.79L62,324.93l1,16.69a2.72,2.72,0,0,0-.3.41c-2.2,3.38-3.25,15-3.25,15l12.26.92.48-3.71c4.41,3.79,20.48,5.48,33.76,6.23l.34-4.6A99.74,99.74,0,0,1,85.37,346.46Z"></path><polygon class="cls-6" points="221.77 69.01 205.13 74.68 207.05 66.97 209.73 56.22 217.98 51.08 221.56 53.05 221.66 59.88 221.77 69.01"></polygon><path class="cls-7" d="M221.66,59.88c-.62.4-1.26.76-1.92,1.12-3.17,1.74-6.53,3.09-9.83,4.54-.77.34-1.84,1-2.86,1.43l2.68-10.75L218,51.08l3.58,2Z"></path><path class="cls-8" d="M280.7,328.27l-6.2,9.63-2-1-13.4,22.75L249.6,361l-.53-2.59L256,353c4.23-12.64,4.19-20.46,4-22,0,0,0,0,0-.06a39.38,39.38,0,0,0-6.77-12.14l9.73-3.45,5.37,7.59C271.66,322.69,280.7,328.27,280.7,328.27Z"></path><path class="cls-4" d="M268.32,323A13.35,13.35,0,0,1,260,331s0,0,0-.06a39.38,39.38,0,0,0-6.77-12.14l9.73-3.45Z"></path><rect class="cls-4" x="259.01" y="339.29" width="2.1" height="6.55" transform="translate(-110.02 561.7) rotate(-83.43)"></rect><rect class="cls-4" x="259.59" y="336" width="2.1" height="6.55" transform="translate(-106.24 559.36) rotate(-83.43)"></rect><rect class="cls-4" x="260.42" y="332.49" width="2.1" height="6.55" transform="translate(-102.01 557.08) rotate(-83.43)"></rect><polygon class="cls-7" points="142.84 122.71 139.96 111.83 132.86 99.77 129.78 101.58 133.51 111.81 113.75 104.28 111.6 106.62 108.4 106.67 106.91 109.85 112.94 114.88 112.05 117.55 129.57 128.54 138.13 129.01 142.23 133.65 147.63 126.94 142.84 122.71"></polygon><path class="cls-9" d="M199.72,88.56s-12.36,16.63-17.62,41.95l-38.36-13.3-6.82,14.45s38.91,17.4,56.24,21.18l15.25-36.68.64-23.42Z"></path><polygon class="cls-7" points="131.22 164.25 142.62 164.25 141.16 158.15 131.37 157.99 131.22 164.25"></polygon><path class="cls-9" d="M203.84,357.52l-12.27.93-.47-3.71c-4.41,3.78-20.49,5.47-33.76,6.22l-.34-4.59c15.57-4.65,30-15,31-16.16l0,0c.79-1.11,1.37-8.17,1.2-13.79l12.08-.92-1.05,16.69a3.34,3.34,0,0,1,.3.41C202.79,345.93,203.84,357.52,203.84,357.52Z"></path><path class="cls-4" d="M200.29,342.14a3.34,3.34,0,0,1,.3.41c-4.24.46-10-1.44-12.53-2.39.79-1.11,1.37-8.17,1.2-13.79l12.08-.92Z"></path><rect class="cls-4" x="178.99" y="344.63" width="2.1" height="6.55" transform="translate(-177.38 187.59) rotate(-38.48)"></rect><rect class="cls-4" x="181.73" y="342.71" width="2.1" height="6.55" transform="translate(-175.59 188.87) rotate(-38.48)"></rect><rect class="cls-4" x="184.79" y="340.81" width="2.1" height="6.55" transform="translate(-173.74 190.37) rotate(-38.48)"></rect><polygon class="cls-9" points="193.16 185.35 182.78 260 184.96 337.17 205.46 337.17 207.68 269.77 225.48 182.92 193.16 185.35"></polygon><path class="cls-8" d="M193.16,185.35l18.75,88,41.51,54.82,17.51-10.69-33.82-57.48s.88-50.76,0-56.07-4-18.63-4-18.63Z"></path><path class="cls-10" d="M237.12,186.44,191,188.75s-1.35-37.36-1.22-63.14c0-6.66.17-12.56.44-16.82.78-11.84,5.1-19.73,8.67-24.34a26.23,26.23,0,0,1,4.95-5.06l21.83-7.12A48.24,48.24,0,0,1,237,100Z"></path><path class="cls-6" d="M199.42,28.71s-7.16,14.67-10.29,18.44c-2.18,2.62,4.44,3.16,4.44,3.16s-3.24,26.37,10.6,16.35c12.22-8.84,13.73-12.85,13.73-12.85s5,.48,6-2.94.13-8.21-4.92-6.06c0,0-2.95-3.37-3.19-6.83s1.25-10.36-4.17-10.14S199.42,28.71,199.42,28.71Z"></path><polygon class="cls-4" points="224.01 68.03 200.67 74.67 198.93 84.45 225.71 72.27 224.01 68.03"></polygon><path class="cls-11" d="M225.71,72.27s-34,39.24-35.89,51.86S186.57,193,186.57,193s43.71,15.13,54.92,10.63Z"></path><path class="cls-6" d="M163.15,152h-5.79L151,148.7s-7.76.65-20.11,9.62l1.53,3h3.5l5.36,5.24,6.55,1.09,9.18-4.37,7.32-2.29Z"></path><path class="cls-8" d="M225.71,72.27s-12.6,13.55-8.92,26.22,8.92,42,8.92,42l-62.07,6.28L165.81,164s76.21,3.08,84.62-4.13S247.24,77.88,225.71,72.27Z"></path><polygon class="cls-4" points="156.35 147.16 165.81 144.01 168.44 166.87 159.77 166.87 156.35 147.16"></polygon><path class="cls-7" d="M131.45,154.53l7.56-2.9,3.41-3.45,4-.49s3.68,4.07,4.53,7.16l-3,2.17-7.65-4.52L131.37,158Z"></path><polygon class="cls-7" points="143.74 160.87 146.89 159.34 147.59 157.81 151.79 156.01 153.46 156.36 155.3 156.01 157.49 164.73 154.82 166.9 154.2 168.76 149.04 169.54 143.78 168.01 143.74 160.87"></polygon><polygon class="cls-4" points="143.14 114.08 152.72 116.86 141.89 137.17 134.75 132.24 143.14 114.08"></polygon><path class="cls-7" d="M220.64,46.05a1.84,1.84,0,0,1,1.31.52,1.77,1.77,0,0,1,.11,1.72,5.93,5.93,0,0,1-1.8,2.66,8.59,8.59,0,0,0,.75-1.52,3.92,3.92,0,0,0,.3-1.62,1.85,1.85,0,0,0-.75-1.41,1.3,1.3,0,0,0-1.29-.11A2.25,2.25,0,0,1,220.64,46.05Z"></path><path class="cls-11" d="M220.82,53.55c2.1-1.45,3.7-4.71,3.12-7.19s-3.55-2.46-5.77-1.2c-3.18-3.72-4.25-8.47-3.95-13.35a24.18,24.18,0,0,1-17.36-.5,17.41,17.41,0,0,1-9.09-8.11c-1.8-3.74-1.65-8.53.95-11.76,1.41,3.57,6.12,4.44,9.94,4.86s7.64-.43,11.46-.9,7.88-.51,11.25,1.34,5.65,6.13,4.12,9.65c3.7,0,6.73,3.1,8.31,6.45a20.1,20.1,0,0,1-2.77,21c-3.23,3.86-8,6.7-9.51,11.51C220.46,62.11,219.84,56.81,220.82,53.55Z"></path><path class="cls-12" d="M212.71,28.1a9.5,9.5,0,0,1-1,.68,13.15,13.15,0,0,1-3.08,1.32,14.78,14.78,0,0,1-5,.51,17.34,17.34,0,0,1-6-1.54,19,19,0,0,1-5.15-3.41,12,12,0,0,1-2.91-4.14,9.09,9.09,0,0,1-.7-3.3,6.21,6.21,0,0,1,.08-1.22,9.16,9.16,0,0,0,.19,1.18,10.17,10.17,0,0,0,1.23,2.94c1.34,2.31,4.29,4.65,8,6.32a19.13,19.13,0,0,0,10.09,1.78,16.29,16.29,0,0,0,3.14-.7C212.32,28.27,212.71,28.1,212.71,28.1Z"></path><path class="cls-12" d="M210.25,23.88s-.24.14-.69.37a14.75,14.75,0,0,1-2,.83,13,13,0,0,1-7.24.34,19.68,19.68,0,0,1-3.7-1.52,10.56,10.56,0,0,1-2.63-2A6.38,6.38,0,0,1,192.77,20a5.3,5.3,0,0,1-.19-.56l-.05-.2.12.17q.12.16.36.45a7.81,7.81,0,0,0,1.56,1.33,24.21,24.21,0,0,0,6.19,2.46,20.32,20.32,0,0,0,6.62.52c.87-.06,1.6-.14,2.09-.21Z"></path><path class="cls-12" d="M222.55,26s0-.19,0-.52a7.21,7.21,0,0,0-.05-1.34,7.06,7.06,0,0,0-4.83-5.89,7.21,7.21,0,0,0-1.31-.31l-.51-.06a4.66,4.66,0,0,1,.48-.22,4.75,4.75,0,0,1,1.45-.29,5.45,5.45,0,0,1,5.61,6.83,4.65,4.65,0,0,1-.58,1.37A3.82,3.82,0,0,1,222.55,26Z"></path><path class="cls-12" d="M228,52.63s.25-.32.66-.91a17.48,17.48,0,0,0,1.45-2.63,27.92,27.92,0,0,0,1.46-4.18,25.69,25.69,0,0,0,.89-5.24,13.45,13.45,0,0,0-.63-5.11,10,10,0,0,0-2.22-3.6,8,8,0,0,0-2.38-1.71,8.16,8.16,0,0,0-.77-.31l-.28-.09.29,0a4.82,4.82,0,0,1,.84.11,7.43,7.43,0,0,1,2.89,1.3,9.72,9.72,0,0,1,3,3.7,12.16,12.16,0,0,1,1,5.78A18.7,18.7,0,0,1,233,45.38a19.2,19.2,0,0,1-2.11,4.14,12.84,12.84,0,0,1-2,2.38A9.16,9.16,0,0,1,228,52.63Z"></path><path class="cls-13" d="M197.14,94.21l1.09,13.46-8.42,15.83c0-6.66.18-10.45.45-14.71.78-11.84,5.1-19.73,8.67-24.34L202.16,83l1.62,7.15Z"></path><path class="cls-4" d="M209,116.88h0a.83.83,0,0,1-.83-.83v-3.34a.83.83,0,0,1,.83-.83h0a.84.84,0,0,1,.84.83v3.34A.84.84,0,0,1,209,116.88Z"></path><polygon class="cls-8" points="198.93 116.4 212.74 115.29 212.74 118.86 198.93 119.76 198.93 116.4"></polygon><path class="cls-3" d="M41.46,357.52l12.27.93.47-3.71c4.42,3.78,20.49,5.47,33.76,6.22l.34-4.59c-15.57-4.65-30-15-31-16.16l0,0c-.79-1.11-1.37-8.17-1.2-13.79L44,325.45l1,16.69a3.34,3.34,0,0,0-.3.41C42.51,345.93,41.46,357.52,41.46,357.52Z"></path><path class="cls-4" d="M44.68,342.36a3,3,0,0,0-.32.43c4.44.48,10.42-1.52,13.1-2.53-.83-1.17-1.43-8.65-1.26-14.6l-12.62-1Z"></path><rect class="cls-4" x="61.98" y="346.85" width="6.55" height="2.1" transform="translate(-247.7 182.51) rotate(-51.52)"></rect><rect class="cls-4" x="59.25" y="344.93" width="6.55" height="2.1" transform="translate(-247.22 179.64) rotate(-51.52)"></rect><rect class="cls-4" x="56.19" y="343.03" width="6.55" height="2.1" transform="translate(-246.9 176.53) rotate(-51.52)"></rect><path class="cls-14" d="M66.43,84.63s19.26,52.86,22.67,61l42.42,5.78-.34,14.86s-58,2.67-67.58-4.2-9.22-63.56-9.22-63.56S57.8,82.61,66.43,84.63Z"></path><polygon class="cls-6" points="61.01 74.68 44.38 69.01 44.49 60.72 44.59 53.32 44.59 53.05 48.18 51.08 56.42 56.22 58.34 63.93 59.01 66.6 61.01 74.68"></polygon><path class="cls-7" d="M59,66.6,44.49,60.72l.1-7.4a5.1,5.1,0,0,0,3.65.49s5.19,6.53,10.1,10.12Z"></path><polygon class="cls-15" points="72.99 185.35 79.53 272.87 77.67 334.88 58.71 334.88 56.37 269.71 40.67 182.92 72.99 185.35"></polygon><polygon class="cls-16" points="52.65 184.88 61.65 262.54 60.1 336.98 38.32 336.98 37 269.1 25.14 207.05 31.55 183.01 52.65 184.88"></polygon><path class="cls-17" d="M62.27,79.39s12.26,8.66,13.62,29.4-.77,80-.77,80L29,186.45,29.15,100A48.24,48.24,0,0,1,40.44,72.27h0Z"></path><path class="cls-6" d="M66.73,28.71S73.89,43.38,77,47.15c2.18,2.62-3.89,2.21-4.44,3.16A64.65,64.65,0,0,1,70,64.55S64.42,67,63,66.09C50.17,58.15,48.25,53.81,48.25,53.81s-5,.48-6-2.94-.13-8.21,4.92-6.06c0,0,3-3.37,3.19-6.83s-1.25-10.36,4.17-10.14S66.73,28.71,66.73,28.71Z"></path><path class="cls-11" d="M27.06,44.53A16.06,16.06,0,0,1,30.4,26.28a15.55,15.55,0,0,0-7.2.56,9.94,9.94,0,0,1,10-4.92,17.24,17.24,0,0,1,3.25-9.14,6.56,6.56,0,0,0,.72,4.71,20.51,20.51,0,0,1,8.7-7.13c2.61-1.13,4.81-1.24,8.15.2l-4.42,2.1A17.63,17.63,0,0,1,67,16.18c4.39,4.15,5.18,12,.89,16.23a11.75,11.75,0,0,1-4.71,2.76,13,13,0,0,1-11.89-2,17.23,17.23,0,0,1-3.17,14c.12-1.7-1.88-3-3.52-2.6A3.84,3.84,0,0,0,42,48.3c-.06,1.7,1.57,3.63,2.57,5C38.05,54.33,30,50.47,27.06,44.53Z"></path><polygon class="cls-4" points="42.14 68.03 65.7 75.93 66.43 84.63 40.44 72.27 42.14 68.03"></polygon><path class="cls-7" d="M46.12,46.48s-.35.06-.83.19a2.23,2.23,0,0,0-.72.33,1.85,1.85,0,0,0-.49.69,4.35,4.35,0,0,0-.42,1.75,2.16,2.16,0,0,0,.16.8,1.51,1.51,0,0,1-.19-.14,1.73,1.73,0,0,1-.4-.55,2.74,2.74,0,0,1,0-2.23,1.78,1.78,0,0,1,2-1.09A3,3,0,0,1,46.12,46.48Z"></path><path class="cls-12" d="M32,29.81l-.28.86c-.19.55-.44,1.36-.68,2.34a15.44,15.44,0,0,0-.21,7.55,13.71,13.71,0,0,0,3.94,6.37,17,17,0,0,0,1.87,1.53l.74.51s-.31-.08-.87-.26a12,12,0,0,1-2.28-1.07A11.74,11.74,0,0,1,31.3,45.2,10.38,10.38,0,0,1,29.07,41,10.91,10.91,0,0,1,29,36.27a14.57,14.57,0,0,1,1.22-3.57,17.37,17.37,0,0,1,1.26-2.15C31.78,30.07,32,29.81,32,29.81Z"></path><path class="cls-12" d="M37,32l-.18.56c-.12.36-.29.88-.45,1.5a9.14,9.14,0,0,0-.27,2.15c0,.8.07,1.71.11,2.73a13.46,13.46,0,0,0,.22,2.61,11.28,11.28,0,0,0,.7,2.06c.27.59.52,1.07.69,1.41l.27.52s-.18-.11-.48-.34a9.16,9.16,0,0,1-1.22-1.09A7.43,7.43,0,0,1,35,42a8.08,8.08,0,0,1-.58-3,12.15,12.15,0,0,1,.18-3,6.42,6.42,0,0,1,1-2.33,8.18,8.18,0,0,1,1-1.28C36.87,32.16,37,32,37,32Z"></path><path class="cls-12" d="M60.1,20l.55.35A12,12,0,0,1,62,21.47a8.37,8.37,0,0,1,1.68,2.13,6,6,0,0,1-.64,6.66,5.75,5.75,0,0,1-2.25,1.65,5.26,5.26,0,0,1-1.78.39,4.08,4.08,0,0,1-.65,0s.22-.08.59-.26a7.2,7.2,0,0,0,1.38-.89,6.28,6.28,0,0,0,2.26-4.29A8.14,8.14,0,0,0,61.34,22c-.35-.61-.67-1.11-.89-1.46Z"></path><path class="cls-12" d="M59.31,14.63a8.7,8.7,0,0,1,1.49.2,7.65,7.65,0,0,1,3.34,1.49,5.46,5.46,0,0,1,2,3.22,3.56,3.56,0,0,1,0,1.15,3.17,3.17,0,0,1-.07.41,6.81,6.81,0,0,0-.79-1.21A14.54,14.54,0,0,0,63,17.71c-.95-.77-1.9-1.49-2.59-2.08A13.15,13.15,0,0,1,59.31,14.63Z"></path><path class="cls-18" d="M30.2,183.45a33.28,33.28,0,0,1,40.15-46.58L74.93,123a47.9,47.9,0,0,0-30,91l4.58-13.88A33.12,33.12,0,0,1,30.2,183.45Z"></path><path class="cls-19" d="M74.93,123l-4.58,13.87A33.28,33.28,0,0,1,49.5,200.09L44.92,214a47.9,47.9,0,0,0,30-91Z"></path><path class="cls-20" d="M89.64,153.5A33.28,33.28,0,1,0,74.9,198.2,33.18,33.18,0,0,0,89.64,153.5Z"></path><path class="cls-19" d="M42.7,175.37l9.15-27.72,5.76,1.9-5.47,16.58.11,0L62,159.86l5.76,1.89-9.48,5.77L62.69,182l-6.27-2.07L54,169.65l-3.75,2.09-1.83,5.53Z"></path><path class="cls-19" d="M64.67,182.61l6.51-19.74,5.76,1.9-.7,2.1a19.85,19.85,0,0,1,4-.57,12.74,12.74,0,0,1,4.38.75l-1.38,4.21a7,7,0,0,0-1.68-.81,10.3,10.3,0,0,0-2-.43,6,6,0,0,0-2.13.1,4.45,4.45,0,0,0-1.91.83,3.8,3.8,0,0,0-1.23,1.84l-3.87,11.72Z"></path><path class="cls-6" d="M63.73,193.64l2.94,3.41,6.8.29,4.07,6.84.42,3.39,1.62,5.22-2.85,3-4.64-.4s-4.63,2.12-6.49,1-6.8-9-6.8-9l.72-3.94-3.15-2.79Z"></path><path class="cls-21" d="M37.37,76.33s-17.65,7.12-19.75,25.34-7,59.57-3.86,63.07S55.11,204,55.11,204l11.32-11.56s-22.5-33.29-32.33-40.64c0,0,16-52.15,10.28-65.52C40.44,77,37.37,76.33,37.37,76.33Z"></path></g></g></svg> 