<?xml version="1.0" encoding="UTF-8"?> <svg xmlns="http://www.w3.org/2000/svg" viewBox="0 0 298.13 321.91"><defs><style>.cls-1{isolation:isolate;}.cls-2{fill:#c0d0d8;}.cls-3{fill:#eff4f4;}.cls-4{fill:#808791;}.cls-5{fill:#c7d8e2;}.cls-6{fill:#dce8ef;}.cls-7{fill:#f0f7f7;}.cls-8{fill:#cee8ef;}.cls-9{fill:#b2cad3;}.cls-10{fill:#799dd3;}.cls-11,.cls-15{fill:#fff;}.cls-11{opacity:0.3;}.cls-12{fill:#cad3db;}.cls-13{fill:#d8e1ea;}.cls-14{fill:#ed9558;}.cls-16{fill:#c97841;}.cls-17{fill:#5c81b7;}.cls-18{fill:#a5bdd6;}.cls-19{fill:#c4cbd6;}.cls-20{fill:#6f7475;}.cls-21{fill:#8a9596;}.cls-22{fill:#ffc197;}.cls-23{fill:#b5b5b5;}.cls-24{fill:#f0f6f7;}.cls-25,.cls-26{fill:#c8cdce;}.cls-26{mix-blend-mode:multiply;}.cls-27{fill:#d6ddea;}.cls-28{fill:#293549;}.cls-29{fill:#ed8c62;}.cls-30{fill:#fdddc2;}.cls-31{fill:#e8e8e8;}.cls-32{fill:#3962a8;}.cls-33{fill:#f0d2bb;}.cls-34{fill:#2d548c;}.cls-35{fill:#658bc1;}.cls-36{fill:#c8d6db;}.cls-37{fill:#82aace;}.cls-38{fill:#4e7caf;}.cls-39{fill:#424344;}</style></defs><title>boy_clock</title><g class="cls-1"><g id="Layer_4" data-name="Layer 4"><path class="cls-2" d="M135.05,25a25,25,0,1,1-25-25A25,25,0,0,1,135.05,25Z"></path><path class="cls-3" d="M133,25a22.88,22.88,0,0,1-9.35,18.49,23.14,23.14,0,0,1-5.55,3,26.59,26.59,0,0,1-2.76.84c-.57.13-1.14.24-1.72.33a22.14,22.14,0,0,1-3.57.28,23.19,23.19,0,0,1-6.81-1,23,23,0,0,1-5.89-41,24.51,24.51,0,0,1,2.49-1.45A23,23,0,0,1,133,25Z"></path><path class="cls-4" d="M110.09,26.11a1.14,1.14,0,0,1-.9-.43l-7.59-9.35a1.16,1.16,0,0,1,1.8-1.46L111,24.23a1.15,1.15,0,0,1-.17,1.62A1.11,1.11,0,0,1,110.09,26.11Z"></path><path class="cls-2" d="M114.6,25a4.51,4.51,0,1,1-4.51-4.51A4.51,4.51,0,0,1,114.6,25Z"></path><path class="cls-2" d="M98.5,39.48a1.15,1.15,0,0,1-.88-1.91l11.6-13.37a1.15,1.15,0,0,1,1.63-.12,1.17,1.17,0,0,1,.12,1.63L99.37,39.09A1.16,1.16,0,0,1,98.5,39.48Z"></path><path class="cls-5" d="M294.9,59.49,253.68,179.4a3.87,3.87,0,0,1-4.91,2.4l-67.05-23.05a3.87,3.87,0,0,1-2.4-4.92L220.54,33.92a3.88,3.88,0,0,1,4.92-2.41l67,23.05A3.88,3.88,0,0,1,294.9,59.49Z"></path><path class="cls-6" d="M297.92,60.53,256.7,180.43a3.87,3.87,0,0,1-4.92,2.4l-67-23.05a3.86,3.86,0,0,1-2.41-4.91L223.55,35a3.89,3.89,0,0,1,4.92-2.41l67,23.05A3.88,3.88,0,0,1,297.92,60.53Z"></path><path class="cls-7" d="M289.39,63.3l-15.67,45.54v0L261,146h0l-5.82,16.89-1.37,4a2.08,2.08,0,0,1-2.65,1.3l-32-11-24.81-8.53A2.09,2.09,0,0,1,193,146l15.2-44.23,20.42-59.39a2.1,2.1,0,0,1,2.54-1.34.35.35,0,0,1,.13.05l9.68,3.33,21.56,7.42,25.59,8.79A2.09,2.09,0,0,1,289.39,63.3Z"></path><path class="cls-5" d="M219.34,168.16h0a3.64,3.64,0,0,1-2.26-4.62h0a3.64,3.64,0,0,1,4.63-2.26h0A3.64,3.64,0,0,1,224,165.9h0A3.65,3.65,0,0,1,219.34,168.16Z"></path><path class="cls-5" d="M235.78,40.43h0a1.49,1.49,0,0,1-.92-1.88h0a1.49,1.49,0,0,1,1.88-.92h0a1.47,1.47,0,0,1,.92,1.88h0A1.49,1.49,0,0,1,235.78,40.43Z"></path><path class="cls-8" d="M249.2,140.26l-1.65-.56,2.47-7.19a13.24,13.24,0,0,0-.63-10.2l-4.54-9.3a6,6,0,0,1,2.73-8l9.31-4.54a13.31,13.31,0,0,0,6.77-7.66l2.46-7.18,1.65.57-2.46,7.18a15,15,0,0,1-7.66,8.66l-9.3,4.54a4.22,4.22,0,0,0-1.94,5.62l4.55,9.31a15,15,0,0,1,.71,11.53Z"></path><path class="cls-8" d="M214.6,128.37,213,127.8l2.47-7.18a15,15,0,0,1,7.65-8.66l9.3-4.54a4.22,4.22,0,0,0,1.94-5.63l-4.55-9.3A15,15,0,0,1,229.05,81l2.47-7.19,1.65.57-2.47,7.18a13.28,13.28,0,0,0,.63,10.2l4.54,9.31a6,6,0,0,1-2.73,8l-9.31,4.54a13.24,13.24,0,0,0-6.76,7.66Z"></path><path class="cls-9" d="M268,88.06a1.88,1.88,0,0,1-.57-.09L230.72,75.34a1.75,1.75,0,0,1,1.14-3.3l36.72,12.63a1.74,1.74,0,0,1-.57,3.39Z"></path><path class="cls-9" d="M249.43,142.09a1.58,1.58,0,0,1-.56-.1l-36.72-12.62a1.74,1.74,0,1,1,1.13-3.3L250,138.69a1.75,1.75,0,0,1-.57,3.4Z"></path><path class="cls-10" d="M234.2,88.17l6.85,14a1.29,1.29,0,0,0,1.74.6l14-6.84a1.31,1.31,0,0,0-.15-2.41L235.8,86.36A1.31,1.31,0,0,0,234.2,88.17Z"></path><path class="cls-10" d="M228,125.76l6-2.92a1.29,1.29,0,0,1,1.74.6l2.92,6a1.31,1.31,0,0,1-1.6,1.81l-8.89-3.06A1.3,1.3,0,0,1,228,125.76Z"></path><path class="cls-10" d="M237.69,119.14a1.42,1.42,0,1,1-.88-1.8A1.42,1.42,0,0,1,237.69,119.14Z"></path><path class="cls-10" d="M239.71,113.27a1.42,1.42,0,1,1-.88-1.8A1.41,1.41,0,0,1,239.71,113.27Z"></path><path class="cls-10" d="M241.73,107.41a1.42,1.42,0,1,1-.88-1.81A1.42,1.42,0,0,1,241.73,107.41Z"></path><path class="cls-11" d="M255.13,162.94l-1.37,4a2.08,2.08,0,0,1-2.65,1.3l-32-11-10.92-55.42,20.42-59.39a2.1,2.1,0,0,1,2.54-1.34Z"></path><polygon class="cls-11" points="273.72 108.84 273.72 108.86 260.95 146.03 240.94 44.43 262.49 51.84 273.72 108.84"></polygon><path class="cls-12" d="M288.44,166l3.4,35a3.44,3.44,0,0,1-3.1,3.76l-47.92,4.65a3.44,3.44,0,0,1-3.75-3.1l-3.4-35a3.44,3.44,0,0,1,3.1-3.76l47.91-4.65A3.44,3.44,0,0,1,288.44,166Z"></path><path class="cls-13" d="M289.2,160l5.61,34.68a3.43,3.43,0,0,1-2.85,4l-47.52,7.69a3.45,3.45,0,0,1-3.95-2.85l-5.61-34.68a3.44,3.44,0,0,1,2.85-4l47.52-7.69A3.44,3.44,0,0,1,289.2,160Z"></path><path class="cls-14" d="M289.2,160l1.25,7.69-54.32,8.79-1.25-7.69a3.44,3.44,0,0,1,2.85-4l47.52-7.69A3.44,3.44,0,0,1,289.2,160Z"></path><rect class="cls-15" x="235.98" y="172.05" width="55.03" height="2.53" transform="translate(-24.3 44.31) rotate(-9.19)"></rect><path class="cls-16" d="M251.81,166.77a4.12,4.12,0,1,1-4.72-3.4A4.11,4.11,0,0,1,251.81,166.77Z"></path><path class="cls-16" d="M280.64,162.11a4.12,4.12,0,1,1-4.72-3.41A4.12,4.12,0,0,1,280.64,162.11Z"></path><path class="cls-17" d="M247.74,170.25a2.82,2.82,0,0,1-2.78-2.37l-1-6a2.82,2.82,0,0,1,5.56-.9l1,6a2.81,2.81,0,0,1-2.33,3.23A2.28,2.28,0,0,1,247.74,170.25Z"></path><path class="cls-17" d="M276.57,165.59a2.83,2.83,0,0,1-2.78-2.37l-1-6a2.82,2.82,0,1,1,5.56-.9l1,6a2.82,2.82,0,0,1-2.33,3.23A3.42,3.42,0,0,1,276.57,165.59Z"></path><rect class="cls-18" x="243.83" y="181.8" width="5.35" height="4.55" transform="translate(-26.25 41.76) rotate(-9.2)"></rect><rect class="cls-18" x="280.32" y="175.89" width="5.35" height="4.55" transform="matrix(0.99, -0.16, 0.16, 0.99, -24.83, 47.5)"></rect><rect class="cls-18" x="271.2" y="177.37" width="5.35" height="4.55" transform="translate(-25.18 46.06) rotate(-9.19)"></rect><rect class="cls-18" x="262.07" y="178.85" width="5.35" height="4.55" transform="translate(-25.54 44.62) rotate(-9.19)"></rect><rect class="cls-18" x="252.95" y="180.32" width="5.35" height="4.55" transform="matrix(0.99, -0.16, 0.16, 0.99, -25.89, 43.19)"></rect><rect class="cls-18" x="245.01" y="189.09" width="5.35" height="4.55" transform="translate(-27.39 42.03) rotate(-9.19)"></rect><rect class="cls-18" x="281.5" y="183.19" width="5.35" height="4.55" transform="matrix(0.99, -0.16, 0.16, 0.99, -25.98, 47.78)"></rect><rect class="cls-18" x="272.38" y="184.66" width="5.35" height="4.55" transform="translate(-26.34 46.36) rotate(-9.2)"></rect><rect class="cls-18" x="263.25" y="186.14" width="5.35" height="4.55" transform="translate(-26.69 44.91) rotate(-9.19)"></rect><rect class="cls-18" x="254.13" y="187.62" width="5.35" height="4.55" transform="translate(-27.04 43.47) rotate(-9.19)"></rect><rect class="cls-18" x="246.18" y="196.39" width="5.35" height="4.55" transform="translate(-28.54 42.31) rotate(-9.19)"></rect><rect class="cls-18" x="282.68" y="190.48" width="5.35" height="4.55" transform="matrix(0.99, -0.16, 0.16, 0.99, -27.13, 48.07)"></rect><rect class="cls-18" x="273.56" y="191.96" width="5.35" height="4.55" transform="translate(-27.48 46.63) rotate(-9.19)"></rect><rect class="cls-18" x="264.43" y="193.43" width="5.35" height="4.55" transform="translate(-27.84 45.19) rotate(-9.19)"></rect><rect class="cls-18" x="255.31" y="194.91" width="5.35" height="4.55" transform="translate(-28.19 43.75) rotate(-9.19)"></rect><circle class="cls-19" cx="20.6" cy="141.15" r="10.93"></circle><path class="cls-19" d="M70.05,79.67a6,6,0,1,1,6-6A6,6,0,0,1,70.05,79.67Zm0-8.88a2.88,2.88,0,1,0,2.87,2.88A2.88,2.88,0,0,0,70.05,70.79Z"></path><path class="cls-20" d="M29.53,80.51,15.11,108.75A3.18,3.18,0,0,0,16.49,113L70.88,140.8a3.18,3.18,0,0,0,4.28-1.38l14.42-28.24a3.19,3.19,0,0,0-1.39-4.28L33.8,79.13a3.17,3.17,0,0,0-4.27,1.38Z"></path><path class="cls-21" d="M31.53,78.89l13.61,30a11.1,11.1,0,0,0,12.28,6.27l32.3-6.58a3.18,3.18,0,0,0-1.53-1.71L33.8,79.13A3.16,3.16,0,0,0,31.53,78.89Z"></path><path class="cls-14" d="M66.7,61l8.66,20.35a2.21,2.21,0,0,0,2.91,1.17L117.46,65.8a2.21,2.21,0,0,0,1.17-2.91L110,42.54a2.22,2.22,0,0,0-1.31-1.22,2.27,2.27,0,0,0-1.6,0L67.87,58.05A2.21,2.21,0,0,0,66.7,61Z"></path><path class="cls-22" d="M66.72,59.17l22.16,6.14a7.72,7.72,0,0,0,8.85-3.76l10.93-20.23a2.27,2.27,0,0,0-1.6,0L67.87,58.05A2.25,2.25,0,0,0,66.72,59.17Z"></path><path class="cls-23" d="M100.6,95.51h-2v2a1.65,1.65,0,1,1-3.3,0v-2h-2a1.65,1.65,0,0,1,0-3.3h2v-2a1.65,1.65,0,0,1,3.3,0v2h2a1.65,1.65,0,0,1,0,3.3Z"></path><path class="cls-24" d="M27.34,300.6a27.34,27.34,0,1,1,27.34-27.34A27.36,27.36,0,0,1,27.34,300.6Zm0-43.72a16.38,16.38,0,1,0,16.38,16.38A16.4,16.4,0,0,0,27.34,256.88Z"></path><path class="cls-25" d="M6.6,217.61a.78.78,0,0,1-.78-.78,110,110,0,0,1,2.59-23.78,108.81,108.81,0,0,1,11.5-30,.78.78,0,0,1,1.07-.3.79.79,0,0,1,.29,1.07,107.37,107.37,0,0,0-13.88,53A.79.79,0,0,1,6.6,217.61Z"></path><path class="cls-25" d="M10.18,245.38a.78.78,0,0,1-.75-.58c-.83-3.12-1.52-6.33-2.07-9.53a.79.79,0,0,1,.65-.91.78.78,0,0,1,.9.64c.54,3.16,1.22,6.32,2,9.4a.79.79,0,0,1-.56,1A.65.65,0,0,1,10.18,245.38Z"></path><path class="cls-25" d="M216.67,216.83A101.43,101.43,0,1,1,115.24,115.4,101.43,101.43,0,0,1,216.67,216.83Z"></path><path class="cls-23" d="M206.8,216.82a91.61,91.61,0,0,1-59.48,85.78,85.75,85.75,0,0,1-11,3.35A91.6,91.6,0,0,1,32.79,177a91.92,91.92,0,0,1,31.76-36.39,89.22,89.22,0,0,1,10-5.76,90.57,90.57,0,0,1,23.89-8,91.62,91.62,0,0,1,108.4,90Z"></path><path class="cls-3" d="M204.41,216.82a89.26,89.26,0,0,1-57.92,83.55,86.23,86.23,0,0,1-10.72,3.26,89.19,89.19,0,0,1-69.9-161.08,85.49,85.49,0,0,1,9.7-5.61,88.81,88.81,0,0,1,23.27-7.79,90.29,90.29,0,0,1,16.4-1.5A89.17,89.17,0,0,1,204.41,216.82Z"></path><path class="cls-15" d="M135.77,303.63a89.72,89.72,0,0,1-47-1.62L34.94,178a89.5,89.5,0,0,1,30.93-35.45Z"></path><path class="cls-15" d="M168.06,288.68a88.71,88.71,0,0,1-21.57,11.69L75.57,136.94a88.81,88.81,0,0,1,23.27-7.79Z"></path><path class="cls-14" d="M115.24,221.53a4.7,4.7,0,0,1-2.18-8.87l47.88-25A4.7,4.7,0,0,1,165.3,196l-47.88,25A4.66,4.66,0,0,1,115.24,221.53Z"></path><path class="cls-20" d="M133.54,216.83a18.31,18.31,0,1,1-18.3-18.31A18.3,18.3,0,0,1,133.54,216.83Z"></path><path class="cls-20" d="M115.24,221.53a4.7,4.7,0,0,1-4-2.23L73.53,158.21a4.7,4.7,0,0,1,8-4.93l37.71,61.08a4.7,4.7,0,0,1-4,7.17Z"></path><path class="cls-26" d="M216.67,216.82a101.34,101.34,0,0,1-41.21,81.64L130.33,120.83a17.94,17.94,0,0,1-.55-4.38h0A101.41,101.41,0,0,1,216.67,216.82Z"></path><polygon class="cls-27" points="206.69 316.39 204.59 303.39 210.44 301.62 211.37 315.39 206.69 316.39"></polygon><path class="cls-28" d="M211.59,314a2.14,2.14,0,0,1,1.06.45c2.07,1.71,8.35,4.78,11.58,5.25,3.46.5,3.64,2.21-1.23,2.21s-8.44-.43-10.6-.38a61.25,61.25,0,0,1-6.94.38c-4.1,0-2.82-5.22-1.35-7.65a1.81,1.81,0,0,1,1.93-1Z"></path><polygon class="cls-27" points="187.87 304.27 196.03 293.94 201.28 297.05 191.76 307.05 187.87 304.27"></polygon><path class="cls-28" d="M192.94,306.27a2.18,2.18,0,0,1,.39,1.08c.13,2.69,2.21,9.54,4.62,11.74s.88,2.82-3.12.93c-4.4-2.07-5.39-6.5-6.89-8.06a62.25,62.25,0,0,1-5-4.86c-2.77-3,1.95-5.6,4.73-6.17a1.84,1.84,0,0,1,2.07.73Z"></path><path class="cls-29" d="M184.26,85.14s-1.59,10.64,1.49,15.54,3.53,5.64,3.53,5.64"></path><path class="cls-30" d="M192.1,111.07a5.53,5.53,0,0,1-7.56-1.92c-.07-.08-.62-1-3.47-5.52-2-3.18-2.64-7.52-2.74-11.33a46.62,46.62,0,0,1,.45-8,5.54,5.54,0,0,1,11,1.65,35.91,35.91,0,0,0-.36,5.18,22.6,22.6,0,0,0,.42,4.8,5.53,5.53,0,0,0,.63,1.78c3.15,5,3.6,5.77,3.6,5.77A5.52,5.52,0,0,1,192.1,111.07Z"></path><path class="cls-31" d="M171.67,172c1.16-15.87-4.18-55.31-6.92-71a3.9,3.9,0,0,1,3.83-4.56h32.63A3.89,3.89,0,0,1,205,99.29c3.73,14.24,6.11,72.69,6.11,72.69Z"></path><path class="cls-30" d="M225.57,138.9c-.55-3-4.18-10.61-8.27-18.6-4.34-8.47-9.18-17.34-11.42-21.37a4.68,4.68,0,0,0-8.2,4.53c3.45,6.22,7,12.85,10.08,18.77,3.51,6.75,6.93,10.93,8.3,14.26-2.54,2.22-8.81,2.36-13.82,2.06-1.37-.16-6.68-.54-10.22,2.71a8.92,8.92,0,0,0-2.83,7.25c.11,2.51.48,3.55,2.72,4.64a6,6,0,0,0,3.13.44c2.57-.31,2.79-1.71,2.82-4.72a11.31,11.31,0,0,1,1.1-4.29s7.57,1.85,13.9,2.65,8.89-.45,11.21-3.06A6.18,6.18,0,0,0,225.57,138.9Z"></path><path class="cls-32" d="M173.39,197.63s-4.8-8.8-1.71-25.65h39.4s.55,12.82-.35,25.65Z"></path><path class="cls-33" d="M217.3,120.3l-4.59.93-5,1c-3.07-5.92-6.63-12.55-10.08-18.77a4.68,4.68,0,0,1,8.2-4.53C208.12,103,213,111.83,217.3,120.3Z"></path><path class="cls-30" d="M172.92,100.07a4.67,4.67,0,0,0-5.67-3.41,170,170,0,0,0-24.61,7.63c-12.57,5.29-12.46,9.21-12.41,11.23.06,2.29.5,6.71,27.62,16.59a18,18,0,0,1-1.4,4.88c-1.23,2.28.05,4.46,1.4,6.66a3.49,3.49,0,0,0,2.82,1.67c1.66,0,3.73-2.11,4-3.87,1-6.32.85-10,.54-10.77v0l-.1-.18a5.36,5.36,0,0,0-.34-.62,2.88,2.88,0,0,0-.28-.33c-.1-.12-.19-.25-.3-.36a3.87,3.87,0,0,0-.59-.48.39.39,0,0,0-.1-.08,4.46,4.46,0,0,0-1-.52c-9.18-3.78-17.76-9.89-21.52-12.59a46.67,46.67,0,0,1,5.5-2.56,184.73,184.73,0,0,1,23-7.17A4.69,4.69,0,0,0,172.92,100.07Z"></path><path class="cls-31" d="M218,118.27l-6.28,1.2-4.93.94h0l-4.17.8c-5.37-10.54-6.66-13-6.86-16.56-.22-4.07.88-6.1,3.52-7.55a5.48,5.48,0,0,1,7.46,2.13A177,177,0,0,1,218,118.27Z"></path><path class="cls-32" d="M235.19,249.76c-.58,3.87-2.68,8-5.61,13.14-4.92,8.54-12.44,18-19.19,25.94-4.7,5.53-9,10.32-11.78,13.58-1.21,1.4-2.12,2.51-2.67,3.28l-5.56-7.21c2.07-2.92,4-6.85,6.41-10.52l.19-.28c4.54-6.85,9.35-14.57,13.25-21.59.16-.23.28-.47.41-.7,4.12-7.43,7.18-14,7.76-17.87,1-6.88-9.23-28.28-19.39-47.16-1.16-2.16-2.32-4.29-3.46-6.36a5.45,5.45,0,0,1-.66-2.29c-.3-3.48,2.26-7.47,5.36-9.18,3.81-2.1,8.73-3.18,10.83.63C215.37,191,237.73,232.93,235.19,249.76Z"></path><path class="cls-34" d="M210.39,288.84c-4.7,5.53-9,10.32-11.78,13.58-.44-3.85-.91-8-1.38-12.27-.1-.81-.18-1.63-.25-2.46,4.54-6.85,9.35-14.57,13.25-21.59C210.4,273,210.42,281.16,210.39,288.84Z"></path><path class="cls-32" d="M209.37,251.87c-1.93-15.76-15.16-58.11-17.22-62.78-1.74-4-11.3-4.83-15.29-3.07a7.86,7.86,0,0,0-4,10.37c5.31,12.11,20.42,44.46,21.93,55.91.88,6.85,2.05,20.62,4.22,32.35,1.52,8.2,3,16.17,4.16,22,1,5,1,4.11,1.07,4.61l9.45-1.44S211.64,270.46,209.37,251.87Z"></path><path class="cls-33" d="M169.49,105.75a184.73,184.73,0,0,0-23,7.17l-3.82-8.63a170,170,0,0,1,24.61-7.63,4.68,4.68,0,1,1,2.24,9.09Z"></path><path class="cls-31" d="M167.32,96.53a5,5,0,0,1,6,3.9c.8,2.92-1.22,5.21-3.83,6.75-3.21,1.89-4.29,2.24-17.82,6.9l-7.51-10.43C161.41,97,162.3,97.25,167.32,96.53Z"></path><path class="cls-33" d="M189.8,95.94h-.75a17.48,17.48,0,0,1-10.72-3.65,46.62,46.62,0,0,1,.45-8,5.54,5.54,0,0,1,11,1.65,35.91,35.91,0,0,0-.36,5.18A22.6,22.6,0,0,0,189.8,95.94Z"></path><path class="cls-30" d="M205.48,76.26c-2.21,10.15-7.88,17.6-17.6,17.6S172,86.51,170.29,76.26c-1.63-9.58,7.92-19,17.64-19S207.54,66.77,205.48,76.26Z"></path><path class="cls-35" d="M206.8,311.29l-.05-.28c-2.66-16.48-6.69-41.39-8.73-57-1.49-11.4-15.6-45.31-20.91-57.42a1.43,1.43,0,0,1-.09-.27s0-.09-.05-.14c-.86-2.33-3.48-11-1-24.59l.77.14c-2.45,13.4.11,21.9,1,24.18l.06.2a1.15,1.15,0,0,0,.06.17c5.32,12.13,19.47,46.13,21,57.63,2,15.65,6.06,40.54,8.73,57l0,.28Z"></path><path class="cls-36" d="M194.14,96.41c0,2.36-.94,6.36-7.18,6.36-4.54,0-10.24-1.93-12.34-5.58l-.46-.78Z"></path><path class="cls-30" d="M176,96.4c1.66,2.9,6.66,4.8,11,4.8s5.61-2.15,5.61-4.8Z"></path><path class="cls-37" d="M199.67,145.56c0-.05.24-2.71-2.51-6.6l2.56-1.52c3.25,4.82,2.93,8.32,2.93,8.55Z"></path><path class="cls-38" d="M197.64,137.49a3.91,3.91,0,0,1,4.36.71c.93,1.07.49,2.5-1,3.18a3.89,3.89,0,0,1-4.35-.71C195.73,139.6,196.17,138.17,197.64,137.49Z"></path><path class="cls-39" d="M205,63.23c-5.29-8.55-18.4-9.27-20.95-9.14-1.35.07-4.25.84-5.53,2.87a20.42,20.42,0,0,1,0-2.64,4,4,0,0,0-1.13,3.5,14.75,14.75,0,0,1-1.35-2.2,2.82,2.82,0,0,0,.77,2.81c-3.58.84-8.15,5.9-6.59,16.28.69,4.52,10.89,1.06,13.78-3.47A9.33,9.33,0,0,0,189.83,75a18.5,18.5,0,0,1-3.43-5.35c5.44,3.33,12.71,6.91,13.54,9.12,0,0,1.56-3.55.39-5.81,0,0,4.31,1.07,4.85,5.38C205.18,78.34,210.69,72.39,205,63.23Z"></path><rect class="cls-35" x="193.69" y="171.44" width="0.78" height="26.99" transform="translate(-27.01 33.33) rotate(-9.18)"></rect><path class="cls-35" d="M195.43,193.26l-.12-.77a4.41,4.41,0,0,0,2.54-1.51,3.51,3.51,0,0,0,.52-2.74l-2.72-16.89.77-.12,2.73,16.88a4.27,4.27,0,0,1-.67,3.33A5,5,0,0,1,195.43,193.26Z"></path><path class="cls-30" d="M169.66,75.25a6.13,6.13,0,0,0,.07,5.18,2.43,2.43,0,0,0,4.4-.12l2.28-5.08a2.43,2.43,0,0,0-2.83-3.37A6.13,6.13,0,0,0,169.66,75.25Z"></path></g></g></svg> 