<svg width="847" height="604" viewBox="0 0 847 604" fill="none" xmlns="http://www.w3.org/2000/svg">
<rect x="72.3779" y="347.42" width="217.137" height="28.9517" fill="#CCCCCC"/>
<rect x="303.992" y="347.42" width="86.8549" height="28.9517" fill="#CCCCCC"/>
<rect x="72.3779" y="405.323" width="217.137" height="28.9517" fill="#CCCCCC"/>
<rect x="28.9512" y="101.331" width="694.84" height="28.9517" fill="#AAAAAA"/>
<rect x="28.9512" y="159.234" width="694.84" height="28.9517" fill="#AAAAAA"/>
<path fill-rule="evenodd" clip-rule="evenodd" d="M680.364 28.9517H72.3791C48.3948 28.9517 28.9517 48.3948 28.9517 72.3792V448.751C28.9517 472.735 48.3948 492.178 72.3792 492.178H484.688C437.681 427.108 443.47 335.717 502.057 277.13C567.069 212.119 672.473 212.119 737.484 277.13C795.075 334.721 801.649 424.011 757.204 488.838L846.999 576.304L820.101 603.202L734.574 515.398C672.414 574.647 575.683 576.558 511.294 521.13H72.3792C32.4053 521.13 0 488.725 0 448.751V72.3792C0 32.4053 32.4052 0 72.3791 0H680.364C720.338 0 752.743 32.4052 752.743 72.3791V294.651C748.133 288.549 743.047 282.692 737.486 277.13C733.097 272.742 728.524 268.649 723.791 264.852V72.3791C723.791 48.3948 704.348 28.9517 680.364 28.9517ZM717.012 492.085C770.717 438.38 770.717 351.307 717.012 297.602C663.307 243.897 576.234 243.897 522.529 297.602C468.824 351.307 468.824 438.38 522.529 492.085C576.234 545.79 663.307 545.79 717.012 492.085Z" fill="white"/>
</svg>
