<svg xmlns="http://www.w3.org/2000/svg" width="1375" height="243.06">
    <g data-name="BACKGROUND 2">
        <path d="M192.76 33.24a7.42 7.42 0 0 0 .91-3.53c0-4.72-4.53-8.54-10.11-8.54a11.55 11.55 0 0 0-5 1.14 11.06 11.06 0 0 0-12.48-4.76c-6 1.58-9.64 7.33-8.19 12.83a10.41 10.41 0 0 0 .44 1.26c-4 1.49-6.35 6-5.41 10.65 1.05 5.13 5.7 8.52 10.41 7.56a8 8 0 0 0 2.47-.94 10.44 10.44 0 0 0 9.71 6.17 10.32 10.32 0 0 0 10.11-7.31 8.36 8.36 0 1 0 7.17-14.53zm521.57-5.63a5 5 0 0 0 .63-2.4c0-3.2-3.08-5.8-6.88-5.8a8 8 0 0 0-3.43.77 7.53 7.53 0 0 0-8.49-3.19c-4.07 1.08-6.57 5-5.58 8.72a7.08 7.08 0 0 0 .3.85 6.29 6.29 0 0 0-3.68 7.24 6.2 6.2 0 0 0 7.08 5.14 5.47 5.47 0 0 0 1.69-.64 7.1 7.1 0 0 0 6.61 4.19 7 7 0 0 0 6.87-5 5.69 5.69 0 1 0 4.88-9.88zm385.4 4.96a5.13 5.13 0 0 0 .62-2.4c0-3.21-3.08-5.8-6.88-5.8a7.81 7.81 0 0 0-3.42.77 7.54 7.54 0 0 0-8.5-3.23c-4.07 1.07-6.56 5-5.57 8.72a6.61 6.61 0 0 0 .3.85 6.29 6.29 0 0 0-3.69 7.24 6.21 6.21 0 0 0 7.09 5.13 5.42 5.42 0 0 0 1.68-.64 7.1 7.1 0 0 0 6.61 4.19 7 7 0 0 0 6.88-5 5.69 5.69 0 1 0 4.88-9.87zM371.56 45.99a5.45 5.45 0 0 0-.91 3c0 4 4.52 7.16 10.11 7.16a13.4 13.4 0 0 0 5-1c2.33 3.37 7.42 5.11 12.48 4 6-1.33 9.65-6.15 8.19-10.76a6.47 6.47 0 0 0-.44-1 7.56 7.56 0 0 0 5.41-8.94c-1-4.31-5.7-7.14-10.4-6.34a8.93 8.93 0 0 0-2.47.79c-1.52-3-5.29-5.17-9.72-5.17-4.87 0-8.95 2.6-10.1 6.12a9.33 9.33 0 0 0-5.44-1.69c-4.62 0-8.37 3.14-8.37 7 .02 3.33 2.87 6.15 6.66 6.83zM663 44.11a6.55 6.55 0 0 0-7.48-5.12 6.07 6.07 0 0 0-1.79.64 7.58 7.58 0 0 0-7-4.15 7.75 7.75 0 0 0-6.68 3.51l-.23.11a7.64 7.64 0 0 0-9-3.81 8.7 8.7 0 0 0-5.92 10.28 8.44 8.44 0 0 0 .31 1c-2.87 1.2-4.59 4.8-3.9 8.54.75 4.12 4.12 6.83 7.52 6.06a5.21 5.21 0 0 0 1.78-.76 7.47 7.47 0 0 0 14.33-.9 5.72 5.72 0 0 0 3.93 1.62 5.65 5.65 0 0 0 1.37-.18 9.33 9.33 0 0 0 3.31-.21c4.32-1.06 7-4.93 5.92-8.63a5 5 0 0 0-.32-.84 6.13 6.13 0 0 0 3.85-7.16z" fill="#b3cafa" opacity=".7"/>
        <g opacity=".3">
            <path fill="#324980" d="M141.9 114.12l38.72-28.28 10 7.88 36.53-36.93L253.7 82l12.8-6.26 23.73 25.45 13.43 12.93H141.9z"/>
            <path fill="#7d9ce6" d="M254.93 95.16l-27.78-38.37L253.7 82l12.76-6.19 23.73 25.34 13.47 12.97-23.29-11.31-20.27-19.92-5.17 12.27z"/>
            <path fill="#b3cafa" d="M240.94 69.86l-13.79-13.11-16.79 17 13.36-5.28 2.81 5.45 7.18-5.25 7.23 1.19z"/>
            <path fill="#7d9ce6" d="M226.53 73.92l.62-17.17-16.79 17 13.36-5.28 2.81 5.45z"/>
            <path fill="#b3cafa" d="M253.7 82l12.8-6.26 10.73 11.51-6.36-4.03-3.12 4.64-6.25-7.07-7.8 1.21z"/>
            <path fill="#7d9ce6" d="M267.75 87.86l-1.25-12.12L253.7 82l7.8-1.21 6.25 7.07z"/>
            <path d="M303.66 114.12c-6-.2-28.24-12.84-29.58-12.84s-11-7.26-11-7.26l2.68 8.81-6.39-3.84-45.12 7.52-11.88-14.59-18.2 13.5-5.68-6.74-31.42 15.44z" fill="#64af5f"/>
            <path d="M303.66 114.12c-6-.2-28.24-12.84-29.58-12.84s-11-7.26-11-7.26l2.68 8.81-6.39-3.84-45.12 7.52-11.88-14.59-18.2 13.5-5.68-6.74-31.42 15.44z" fill="#5269a6"/>
        </g>
        <g opacity=".4">
            <path fill="#5269a6" d="M210.22 113.1l-44.23-41.71-11.41 11.7-41.73-54.86-30.32 37.45-14.62-9.3L40.8 94.19 1.92 113.1h208.3z"/>
            <path fill="#7d9ce6" d="M112.85 28.23l8.83 26.29 8.81 26.28 8.15-12.9 9.09 45.29 62.49-.09-44.23-41.71-11.41 11.7-41.73-54.86z"/>
            <path fill="#7d9ce6" d="M165.99 71.33l44.23 41.77-38.62-28.56-8.1 2.45 2.49-15.66z"/>
            <path fill="#324980" d="M81.13 85.24l31.72-57.01-30.32 37.45-14.58-9.2-27.11 37.65L.14 113.4l51.92-16.81L75.22 67l5.91 18.24z"/>
            <path fill="#7d9ce6" d="M97.11 47.65l15.74-19.48 19.18 25.25-15.26-7.84-3.21 8.1-8.2-7.8-8.25 1.77z"/>
            <path fill="#b3cafa" d="M113.56 53.68l-.71-25.51 19.18 25.25-15.26-7.84-3.21 8.1z"/>
            <path fill="#d4e2a7" d="M82.53 65.68l-14.62-9.3-12.26 17.1 7.26-6 3.57 6.91 7.13-10.51 8.92 1.8z"/>
            <path fill="#adcd6d" d="M66.48 74.39l1.43-18.01 14.62 9.3-8.92-1.8-7.13 10.51z"/>
            <path fill="#7d9ce6" d="M154.58 83.09l11.41-11.76 17.55 16.53-15.41-7.17-4.63 6.3-2.14-5.7-6.78 1.8z"/>
            <path fill="#b3cafa" d="M183.54 87.86l-15.41-7.17-4.63 6.3 2.49-15.66"/>
        </g>
        <g opacity=".4">
            <path fill="#5269a6" d="M558.3 114.42l-44.23-41.71-11.41 11.7-41.74-54.86L430.61 67l-14.63-9.3-27.11 37.81-38.88 18.91H558.3z"/>
            <path fill="#7d9ce6" d="M460.92 29.55l8.84 26.29 8.81 26.28 8.15-12.9 9.08 45.29 62.5-.09-44.23-41.71-11.41 11.7-41.74-54.86z"/>
            <path fill="#7d9ce6" d="M514.07 72.65l44.23 41.77-38.62-28.56-8.11 2.45 2.5-15.66z"/>
            <path fill="#324980" d="M429.2 86.56l31.72-57.01L430.61 67l-14.58-9.2-27.11 37.65-40.71 19.27 51.92-16.81 23.16-29.59 5.91 18.24z"/>
            <path fill="#7d9ce6" d="M445.18 48.97l15.74-19.48 19.19 25.25-15.26-7.84-3.21 8.1-8.21-7.8-8.25 1.77z"/>
            <path fill="#b3cafa" d="M461.64 55l-.72-25.51 19.19 25.25-15.26-7.84-3.21 8.1z"/>
            <path fill="#7d9ce6" d="M430.61 67l-14.63-9.3-12.26 17.1 7.27-5.99 3.57 6.9 7.13-10.51 8.92 1.8z"/>
            <path fill="#b3cafa" d="M414.56 75.71l1.42-18.01 14.63 9.3-8.92-1.8-7.13 10.51z"/>
            <path fill="#7d9ce6" d="M502.66 84.41l11.41-11.76 17.54 16.53-15.4-7.17-4.64 6.3-2.14-5.7-6.77 1.8z"/>
            <path fill="#b3cafa" d="M531.61 89.18l-15.4-7.17-4.64 6.3 2.5-15.66"/>
        </g>
        <g opacity=".3">
            <path fill="#324980" d="M849.28 114.12L888 85.84l10 7.88 36.53-36.93L961.08 82l12.8-6.26 23.73 25.45 13.43 12.93H849.28z"/>
            <path fill="#7d9ce6" d="M962.3 95.16l-27.77-38.37L961.08 82l12.76-6.19 23.73 25.34 13.47 12.97-23.29-11.31-20.27-19.92-5.18 12.27z"/>
            <path fill="#b3cafa" d="M948.32 69.86l-13.79-13.11-16.79 17 13.36-5.28 2.81 5.45 7.18-5.25 7.23 1.19z"/>
            <path fill="#7d9ce6" d="M933.91 73.92l.62-17.17-16.79 17 13.36-5.28 2.81 5.45z"/>
            <path fill="#b3cafa" d="M961.08 82l12.8-6.26 10.73 11.51-6.36-4.03-3.12 4.64-6.25-7.07-7.8 1.21z"/>
            <path fill="#7d9ce6" d="M975.13 87.86l-1.25-12.12-12.8 6.26 7.8-1.21 6.25 7.07z"/>
            <path d="M1011 114.12c-6-.2-28.24-12.84-29.58-12.84s-11-7.26-11-7.26l2.68 8.81-6.35-3.84-45.12 7.52-11.88-14.59-18.2 13.5-5.68-6.74-31.42 15.44z" fill="#64af5f"/>
            <path d="M1011 114.12c-6-.2-28.24-12.84-29.58-12.84s-11-7.26-11-7.26l2.68 8.81-6.35-3.84-45.12 7.52-11.88-14.59-18.2 13.5-5.68-6.74-31.42 15.44z" fill="#5269a6"/>
        </g>
        <g opacity=".4">
            <path fill="#5269a6" d="M917.6 113.1l-44.23-41.71-11.41 11.7-41.73-54.86-30.32 37.45-14.62-9.3-27.11 37.81-38.88 18.91h208.3z"/>
            <path fill="#7d9ce6" d="M820.23 28.23l8.83 26.29 8.81 26.28 8.15-12.9 9.09 45.29 62.49-.09-44.23-41.71-11.41 11.7-41.73-54.86z"/>
            <path fill="#7d9ce6" d="M873.37 71.33l44.23 41.77-38.62-28.56-8.1 2.45 2.49-15.66z"/>
            <path fill="#324980" d="M788.51 85.24l31.72-57.01-30.32 37.45-14.58-9.2-27.11 37.65-40.71 19.27 51.93-16.81L782.6 67l5.91 18.24z"/>
            <path fill="#7d9ce6" d="M804.49 47.65l15.74-19.48 19.18 25.25-15.26-7.84-3.21 8.1-8.2-7.8-8.25 1.77z"/>
            <path fill="#b3cafa" d="M820.94 53.68l-.71-25.51 19.18 25.25-15.26-7.84-3.21 8.1z"/>
            <path fill="#d4e2a7" d="M789.91 65.68l-14.62-9.3-12.26 17.1 7.26-6 3.57 6.91 7.13-10.51 8.92 1.8z"/>
            <path fill="#adcd6d" d="M773.86 74.39l1.43-18.01 14.62 9.3-8.92-1.8-7.13 10.51z"/>
            <path fill="#7d9ce6" d="M861.96 83.09l11.41-11.76 17.55 16.53-15.41-7.17-4.63 6.3-2.14-5.7-6.78 1.8z"/>
            <path fill="#b3cafa" d="M890.92 87.86l-15.41-7.17-4.63 6.3 2.49-15.66"/>
        </g>
        <g opacity=".4">
            <path fill="#5269a6" d="M1265.68 114.42l-44.23-41.71-11.41 11.7-41.74-54.86L1137.98 67l-14.62-9.3-27.11 37.81-38.87 18.91h208.3z"/>
            <path fill="#7d9ce6" d="M1168.3 29.55l8.84 26.29 8.81 26.28 8.15-12.9 9.08 45.29 62.5-.09-44.23-41.71-11.41 11.7-41.74-54.86z"/>
            <path fill="#7d9ce6" d="M1221.45 72.65l44.23 41.77-38.62-28.56-8.11 2.45 2.5-15.66z"/>
            <path fill="#324980" d="M1136.58 86.56l31.72-57.01L1137.98 67l-14.57-9.2-27.11 37.65-40.71 19.27 51.93-16.81 23.15-29.59 5.91 18.24z"/>
            <path fill="#7d9ce6" d="M1152.56 48.97l15.74-19.48 19.19 25.25-15.26-7.84-3.21 8.1-8.21-7.8-8.25 1.77z"/>
            <path fill="#b3cafa" d="M1169.02 55l-.72-25.51 19.19 25.25-15.26-7.84-3.21 8.1z"/>
            <path fill="#7d9ce6" d="M1137.98 67l-14.62-9.3-12.26 17.1 7.27-5.99 3.56 6.9 7.14-10.51 8.91 1.8z"/>
            <path fill="#b3cafa" d="M1121.93 75.71l1.43-18.01 14.62 9.3-8.91-1.8-7.14 10.51z"/>
            <path fill="#7d9ce6" d="M1210.04 84.41l11.41-11.76 17.54 16.53-15.4-7.17-4.64 6.3-2.14-5.7-6.77 1.8z"/>
            <path fill="#b3cafa" d="M1238.99 89.18l-15.4-7.17-4.64 6.3 2.5-15.66"/>
        </g>
        <path d="M1375 105.41c-13.27.63-32.32 0-41.36 2.25-11.89 3-88.17-39.63-110-36.66s-92.15 30.51-112.94 31.7c-17.92 1-90.79 6.87-123.82 3.56-.63-.06-81.54-18.58-105.67-15.85-11.9 1.35-54 13.31-73.9 15.8s-125.14 8.71-147.55.62-36.73-16.19-61-24.28-36.73-12.45-58.52-3.11-28 19.92-77.2 26.77-109.12 4.31-122.19 1.78-45.57-5.6-54.49-2.32S252 89.4 239.56 88.15s-42.34 11.83-61 19.92-71.59 3.74-87.78-.62c-6.47-1.74-46.88-2.16-90.76-2v137.61H1375z" fill="#7d9ce6"/>
        <path d="M85.36 112.45c0 1.52-5.42 2.75-12.1 2.75s-12.1-1.23-12.1-2.75 5.42-2.75 12.1-2.75 12.1 1.23 12.1 2.75z" fill="#d4d4d5" style="mix-blend-mode:multiply"/>
        <path d="M95.76 32.39c7.68 21.48 3.8 59.74-17.83 59.74S52.42 53.87 60.1 32.39c4.12-11.54 11.46-17.6 17.83-17.6s13.71 6.06 17.83 17.6z" fill="#5269a6"/>
        <path d="M95.76 30.23c7.68 21.48 3.8 59.76-17.83 59.76S52.42 51.71 60.1 30.23c4.12-11.54 11.46-17.6 17.83-17.6s13.71 6.06 17.83 17.6z" fill="#7d9ce6"/>
        <path d="M95.76 30.73c-3.46-10-9.18-15.94-14.69-17.61 3.23 3.2 12.81 74.8-8.11 78.3a16 16 0 0 0 5 .79c21.6 0 25.48-39.37 17.8-61.48z" fill="#81e4a3" opacity=".4" style="mix-blend-mode:multiply"/>
        <path d="M76 60.92l-.24 15.22a54.19 54.19 0 0 0-6-3.34c-.71-.08-.47.55.08.94s3.81 3.25 5.84 5.3l-.29 33.95h6.3l-.77-28.86c1.47-1.52 3-3 3.32-3.21.55-.4.47-1.56-.24-1.48a20.87 20.87 0 0 0-3.27 1.83l-1.31-20.3a2.1 2.1 0 0 0-1.69-.7 2.35 2.35 0 0 0-1.73.65z" fill="#5269a6"/>
        <path d="M84.22 79.42a.69.69 0 0 0-.22 0 20.87 20.87 0 0 0-3.27 1.83l-.56-9-.73-11.31a2.16 2.16 0 0 0-1.26-.64v52.66h3.47l-.75-28.87c1.03-1.1 2.1-2.1 2.75-2.7.29-.26.5-.46.59-.52a.83.83 0 0 0 .29-.4c.14-.41.03-.92-.31-1.05z" fill="#a07561" opacity=".4" style="mix-blend-mode:multiply"/>
        <path d="M515.34 119.71c0 1.52-5.42 2.75-12.1 2.75s-12.1-1.23-12.1-2.75 5.41-2.75 12.1-2.75 12.1 1.24 12.1 2.75z" fill="#d4d4d5" style="mix-blend-mode:multiply"/>
        <path d="M525.74 39.66c7.67 21.48 3.8 59.73-17.83 59.73s-25.51-38.25-17.83-59.73c4.12-11.54 11.45-17.61 17.83-17.61s13.7 6.07 17.83 17.61z" fill="#5269a6"/>
        <path d="M525.74 37.5c7.67 21.48 3.8 59.73-17.83 59.73S482.4 58.99 490.08 37.5c4.12-11.54 11.45-17.6 17.83-17.6s13.7 6.09 17.83 17.6z" fill="#7d9ce6"/>
        <path d="M525.74 37.99c-3.47-10-9.18-15.94-14.7-17.61 3.23 3.2 12.81 74.8-8.1 78.3a16 16 0 0 0 5 .79c21.6 0 25.47-39.37 17.8-61.48z" fill="#81e4a3" opacity=".4" style="mix-blend-mode:multiply"/>
        <path d="M505.94 68.19l-.25 15.21a56.16 56.16 0 0 0-6-3.34c-.72-.08-.48.55.07 1s3.81 3.24 5.85 5.29l-.28 33.91h6.29l-.77-28.86c1.48-1.52 3-3 3.33-3.21.55-.4.47-1.56-.24-1.48a19.94 19.94 0 0 0-3.28 1.83l-1.3-20.3a2.1 2.1 0 0 0-1.7-.71 2.33 2.33 0 0 0-1.72.66z" fill="#5269a6"/>
        <path d="M514.2 86.68a.53.53 0 0 0-.22 0 19.94 19.94 0 0 0-3.28 1.83l-.55-9-.75-11.32a2.19 2.19 0 0 0-1.26-.65v52.67h3.48l-.75-28.87c1-1.06 2.08-2.09 2.74-2.68a6 6 0 0 1 .59-.52.93.93 0 0 0 .29-.41.84.84 0 0 0-.29-1.05z" fill="#a07561" opacity=".4" style="mix-blend-mode:multiply"/>
        <path d="M366.48 117.16c0 .74-2.65 1.34-5.91 1.34s-5.91-.6-5.91-1.34 2.65-1.34 5.91-1.34 5.91.6 5.91 1.34z" fill="#d4d4d5" style="mix-blend-mode:multiply"/>
        <path d="M371.55 78.07c3.75 10.49 1.86 29.17-8.7 29.17s-12.45-18.68-8.7-29.17c2-5.63 5.59-8.59 8.7-8.59s6.69 2.96 8.7 8.59z" fill="#5269a6"/>
        <path d="M371.55 76.99c3.75 10.49 1.86 29.16-8.7 29.16s-12.45-18.64-8.7-29.16c2-5.63 5.59-8.59 8.7-8.59s6.69 2.99 8.7 8.59z" fill="#7d9ce6"/>
        <path d="M371.55 77.26c-1.69-4.86-4.48-7.78-7.17-8.6 1.58 1.57 6.25 36.52-4 38.23a8 8 0 0 0 2.43.39c10.6 0 12.49-19.22 8.74-30.02z" fill="#81e4a3" opacity=".4" style="mix-blend-mode:multiply"/>
        <path d="M361.89 91.99l-.12 7.43a26.76 26.76 0 0 0-2.92-1.63c-.34 0-.23.27 0 .46s1.86 1.59 2.85 2.59l-.13 16.55h3.07l-.37-14.09c.72-.74 1.48-1.47 1.62-1.57s.23-.76-.12-.72a10.39 10.39 0 0 0-1.6.89l-.59-9.91a1 1 0 0 0-.83-.34 1.14 1.14 0 0 0-.86.34z" fill="#5269a6"/>
        <path d="M365.92 100.99h-.11a10.39 10.39 0 0 0-1.6.89l-.27-4.38-.36-5.51a1.07 1.07 0 0 0-.62-.31v25.71h1.7l-.37-14.1c.5-.51 1-1 1.34-1.3l.29-.26a.45.45 0 0 0 0-.71z" fill="#a07561" opacity=".4" style="mix-blend-mode:multiply"/>
        <path d="M259.23 108.6c0 1-1.81 1.83-4 1.83s-4-.82-4-1.83 1.81-1.83 4-1.83 4 .82 4 1.83z" fill="#999" opacity=".4" style="mix-blend-mode:multiply"/>
        <path d="M254.8 61.99c-.23.24-.7.15-1.05-.2-.34-.35-.43-.82-.2-1.06l12.2-12.14c.24-.23.71-.14 1.06.2.35.35.44.82.2 1.06zm.2-6c.31.22.31.78 0 1.25-.32.46-.84.66-1.16.45l-16.52-11.27c-.32-.22-.32-.78 0-1.24.32-.47.84-.67 1.15-.45z" fill="#a07561"/>
        <path d="M254.8 61.99c-.23.24-.7.15-1.05-.2-.34-.35-.43-.82-.2-1.06l12.2-12.14c.24-.23.71-.14 1.06.2.35.35.44.82.2 1.06zm.2-6c.31.22.31.78 0 1.25-.32.46-.84.66-1.16.45l-16.52-11.27c-.32-.22-.32-.78 0-1.24.32-.47.84-.67 1.15-.45z" fill="#5269a6"/>
        <path d="M257.21 108.09c0 .92-1.12 1.68-2.47 1.68h-.05c-1.36 0-2.47-.76-2.47-1.68V24.24c0-.93 1.11-1.69 2.47-1.69h.05c1.35 0 2.47.76 2.47 1.69z" fill="#5269a6"/>
        <path d="M273.82 20.53A20.52 20.52 0 1 1 253.3-.01a20.52 20.52 0 0 1 20.52 20.54z" fill="#7d9ce6"/>
        <path d="M262.22 2.06a20.52 20.52 0 0 1-18.09 30.22 20.37 20.37 0 0 1-8.92-2.06 20.52 20.52 0 1 0 27-28.16z" fill="#81e4a3" opacity=".4" style="mix-blend-mode:multiply"/>
        <path d="M275.85 46.86a8.37 8.37 0 1 1-8.37-8.37 8.37 8.37 0 0 1 8.37 8.37z" fill="#7d9ce6"/>
        <path d="M271.12 39.33a8.37 8.37 0 0 1-11 11.49 8.37 8.37 0 1 0 11-11.49z" fill="#81e4a3" opacity=".4" style="mix-blend-mode:multiply"/>
        <path d="M246.82 46.85a9.52 9.52 0 1 1-9.51-9.52 9.51 9.51 0 0 1 9.51 9.52z" fill="#7d9ce6"/>
        <path d="M241.44 38.29a9.5 9.5 0 0 1-12.52 13.05 9.51 9.51 0 1 0 12.52-13.05z" fill="#81e4a3" opacity=".4" style="mix-blend-mode:multiply"/>
        <path d="M29.7 112.57c0 .67-1.21 1.22-2.69 1.22s-2.69-.55-2.69-1.22 1.21-1.22 2.69-1.22 2.69.55 2.69 1.22z" fill="#999" opacity=".4" style="mix-blend-mode:multiply"/>
        <path d="M26.75 81.55c-.16.16-.47.09-.7-.14-.23-.23-.29-.55-.13-.71L34 72.62c.16-.16.47-.09.7.14.23.23.29.55.13.7zm.11-3.99c.21.15.21.52 0 .83-.21.31-.56.45-.77.3l-11-7.52a.62.62 0 0 1 0-.83c.22-.31.56-.45.77-.3z" fill="#a07561"/>
        <path d="M26.75 81.55c-.16.16-.47.09-.7-.14-.23-.23-.29-.55-.13-.71L34 72.62c.16-.16.47-.09.7.14.23.23.29.55.13.7zm.11-3.99c.21.15.21.52 0 .83-.21.31-.56.45-.77.3l-11-7.52a.62.62 0 0 1 0-.83c.22-.31.56-.45.77-.3z" fill="#5269a6"/>
        <path d="M28.35 112.23c0 .61-.74 1.12-1.65 1.12-.9 0-1.64-.51-1.64-1.12V56.41c0-.62.74-1.12 1.64-1.12.91 0 1.65.5 1.65 1.12z" fill="#5269a6"/>
        <path d="M39.41 53.99a13.66 13.66 0 1 1-13.66-13.71 13.66 13.66 0 0 1 13.66 13.71z" fill="#7d9ce6"/>
        <path d="M31.69 41.65a13.64 13.64 0 0 1-18 18.74 13.66 13.66 0 1 0 18-18.74z" fill="#81e4a3" opacity=".4" style="mix-blend-mode:multiply"/>
        <path d="M40.76 71.47a5.57 5.57 0 1 1-5.57-5.57 5.57 5.57 0 0 1 5.57 5.57z" fill="#7d9ce6"/>
        <path d="M37.61 66.46a5.57 5.57 0 0 1-4.91 8.2 5.45 5.45 0 0 1-2.42-.56 5.57 5.57 0 1 0 7.33-7.64z" fill="#81e4a3" opacity=".4" style="mix-blend-mode:multiply"/>
        <path d="M21.44 71.46a6.34 6.34 0 1 1-6.34-6.33 6.33 6.33 0 0 1 6.34 6.33z" fill="#7d9ce6"/>
        <path d="M17.86 65.76a6.33 6.33 0 0 1-8.34 8.69 6.33 6.33 0 1 0 8.34-8.69z" fill="#81e4a3" opacity=".4" style="mix-blend-mode:multiply"/>
        <path fill="#6884d7" d="M54.22 111.7l-7.79-38.19-7.79 38.19h15.58z"/>
        <path fill="#757575" opacity=".4" style="mix-blend-mode:multiply" d="M43.17 111.7l3.26-38.19-7.79 38.19h4.53z"/>
        <path fill="#6884d7" d="M60.65 111.7l-5.58-27.34-5.58 27.34h11.16z"/>
        <path fill="#757575" opacity=".4" style="mix-blend-mode:multiply" d="M52.73 111.7l2.34-27.34-5.58 27.34h3.24z"/>
        <path fill="#6884d7" d="M612.33 118.96l-7.79-38.19-7.79 38.19h15.58z"/>
        <path fill="#757575" opacity=".4" style="mix-blend-mode:multiply" d="M601.28 118.96l3.26-38.19-7.79 38.19h4.53z"/>
        <path fill="#6884d7" d="M618.76 118.96l-5.58-27.34-5.58 27.34h11.16z"/>
        <path fill="#757575" opacity=".4" style="mix-blend-mode:multiply" d="M610.85 118.96l2.33-27.34-5.58 27.34h3.25z"/>
        <path fill="#6884d7" d="M387.77 127.55l-7.79-38.19-7.8 38.19h15.59z"/>
        <path fill="#757575" opacity=".4" style="mix-blend-mode:multiply" d="M376.72 127.55l3.26-38.19-7.8 38.19h4.54z"/>
        <path fill="#6884d7" d="M394.19 127.55l-5.58-27.34-5.58 27.34h11.16z"/>
        <path fill="#757575" opacity=".4" style="mix-blend-mode:multiply" d="M386.28 127.55l2.33-27.34-5.58 27.34h3.25z"/>
        <path fill="#6884d7" d="M111.19 119.99l9.97-42.16 9.96 42.16h-19.93z"/>
        <path fill="#589b95" opacity=".4" style="mix-blend-mode:multiply" d="M125.32 119.99l-4.16-42.16 9.96 42.16h-5.8z"/>
        <path fill="#6884d7" d="M102.98 119.99l7.14-30.18 7.13 30.18h-14.27z"/>
        <path fill="#4b8472" opacity=".4" style="mix-blend-mode:multiply" d="M113.1 119.99l-2.98-30.18 7.13 30.18h-4.15z"/>
        <path fill="#6884d7" d="M222.71 113.39l10.91-45.44 10.91 45.44h-21.82z"/>
        <path fill="#589b95" opacity=".4" style="mix-blend-mode:multiply" d="M238.18 113.39l-4.56-45.44 10.91 45.44h-6.35z"/>
        <path fill="#6884d7" d="M213.73 113.39l7.8-32.53 7.81 32.53h-15.61z"/>
        <path fill="#4b8472" opacity=".4" style="mix-blend-mode:multiply" d="M224.8 113.39l-3.27-32.53 7.81 32.53h-4.54z"/>
        <path fill="#6884d7" d="M532.48 131.22l10.91-45.43 10.9 45.43h-21.81z"/>
        <path fill="#589b95" opacity=".4" style="mix-blend-mode:multiply" d="M547.95 131.22l-4.56-45.43 10.9 45.43h-6.34z"/>
        <path fill="#6884d7" d="M523.49 131.22l7.81-32.53 7.81 32.53h-15.62z"/>
        <path fill="#4b8472" opacity=".4" style="mix-blend-mode:multiply" d="M534.57 131.22l-3.27-32.53 7.81 32.53h-4.54z"/>
        <path fill="#6884d7" d="M273.31 114.93l14.32-60.63 14.32 60.63h-28.64z"/>
        <path fill="#589b95" opacity=".4" style="mix-blend-mode:multiply" d="M293.62 114.93l-5.99-60.63 14.32 60.63h-8.33z"/>
        <path fill="#6884d7" d="M261.5 114.93l10.26-43.4 10.25 43.4H261.5z"/>
        <path fill="#4b8472" opacity=".4" style="mix-blend-mode:multiply" d="M276.04 114.93l-4.28-43.4 10.25 43.4h-5.97z"/>
        <text transform="translate(17.98 62.11)" font-size="22.23" font-family="ProximaNova-Regular, Proxima Nova" opacity=".1">
            %
        </text>
        <text transform="translate(242.99 31.25)" opacity=".1" font-size="31.45" font-family="ProximaNova-Regular, Proxima Nova">
            %
        </text>
        <text transform="translate(11.63 75.02)" opacity=".1" font-size="9.63" font-family="ProximaNova-Regular, Proxima Nova">
            %
        </text>
        <text transform="translate(264.23 50.55)" opacity=".1" font-size="9.63" font-family="ProximaNova-Regular, Proxima Nova">
            %
        </text>
        <text transform="translate(232.33 51.92)" opacity=".1" font-size="13.81" font-family="ProximaNova-Regular, Proxima Nova">
            %
        </text>
        <path d="M581.42 118.64c0 1-1.81 1.83-4 1.83s-4-.82-4-1.83 1.8-1.83 4-1.83 4 .82 4 1.83z" fill="#999" opacity=".4" style="mix-blend-mode:multiply"/>
        <path d="M577 72.04c-.23.23-.71.14-1-.2-.35-.34-.44-.82-.2-1L588 58.7c.24-.24.71-.15 1.05.2.35.35.43.82.2 1zm.15-5.99c.32.22.32.78 0 1.24-.32.47-.84.67-1.16.45l-16.47-11.3c-.32-.22-.32-.78 0-1.25s.84-.67 1.15-.45z" fill="#a07561"/>
        <path d="M577 72.04c-.23.23-.71.14-1-.2-.35-.34-.44-.82-.2-1L588 58.7c.24-.24.71-.15 1.05.2.35.35.43.82.2 1zm.15-5.99c.32.22.32.78 0 1.24-.32.47-.84.67-1.16.45l-16.47-11.3c-.32-.22-.32-.78 0-1.25s.84-.67 1.15-.45z" fill="#5269a6"/>
        <path d="M579.39 118.12c0 .93-1.11 1.69-2.47 1.69-1.35 0-2.46-.76-2.46-1.69V34.27c0-.93 1.11-1.68 2.46-1.68 1.36 0 2.47.75 2.47 1.68z" fill="#5269a6"/>
        <path d="M596 30.56a20.53 20.53 0 1 1-20.52-20.52A20.53 20.53 0 0 1 596 30.56z" fill="#7d9ce6"/>
        <path d="M584.41 12.1a20.5 20.5 0 0 1-27 28.16 20.52 20.52 0 1 0 27-28.16z" fill="#81e4a3" opacity=".4" style="mix-blend-mode:multiply"/>
        <path d="M598 56.9a8.37 8.37 0 1 1-8.37-8.37A8.37 8.37 0 0 1 598 56.9z" fill="#7d9ce6"/>
        <path d="M593.31 49.37a8.37 8.37 0 0 1-7.38 12.32 8.25 8.25 0 0 1-3.64-.84 8.37 8.37 0 1 0 11-11.48z" fill="#81e4a3" opacity=".4" style="mix-blend-mode:multiply"/>
        <path d="M569 56.88a9.52 9.52 0 1 1-9.52-9.51 9.52 9.52 0 0 1 9.52 9.51z" fill="#7d9ce6"/>
        <path d="M563.63 48.33a9.4 9.4 0 0 1 1.13 4.49 9.51 9.51 0 0 1-13.65 8.56 9.51 9.51 0 1 0 12.52-13z" fill="#81e4a3" opacity=".4" style="mix-blend-mode:multiply"/>
        <text transform="translate(565.18 41.29)" opacity=".1" font-size="31.45" font-family="ProximaNova-Regular, Proxima Nova">
            %
        </text>
        <text transform="translate(586.41 60.59)" opacity=".1" font-size="9.63" font-family="ProximaNova-Regular, Proxima Nova">
            %
        </text>
        <text transform="translate(554.52 61.96)" opacity=".1" font-size="13.81" font-family="ProximaNova-Regular, Proxima Nova">
            %
        </text>
        <text transform="translate(32.27 74.6)" opacity=".1" font-size="8.4" font-family="ProximaNova-Regular, Proxima Nova">
            %
        </text>
        <path d="M790.2 122.46c0 1.3-4.48 2.36-10 2.36s-10-1.06-10-2.36 4.47-2.35 10-2.35 10 1.05 10 2.35z" fill="#d4d4d5" style="mix-blend-mode:multiply"/>
        <path d="M798.8 53.88c6.35 18.4 3.14 51.17-14.74 51.17S763 72.28 769.32 53.88c3.41-9.88 9.47-15.08 14.74-15.08s11.33 5.19 14.74 15.08z" fill="#5269a6"/>
        <path d="M798.8 51.99c6.35 18.4 3.14 51.17-14.74 51.17S763 70.43 769.32 51.99c3.41-9.84 9.47-15 14.74-15s11.33 5.16 14.74 15z" fill="#7d9ce6"/>
        <path d="M798.8 52.46c-2.86-8.54-7.59-13.66-12.15-15.09 2.67 2.74 10.6 64.08-6.7 67.07a12.74 12.74 0 0 0 4.11.68c17.88 0 21.09-33.72 14.74-52.66z" fill="#81e4a3" opacity=".4" style="mix-blend-mode:multiply"/>
        <path d="M782.43 78.32l-.2 13a43.62 43.62 0 0 0-4.94-2.86c-.58-.07-.39.47.07.8s3.15 2.79 4.83 4.54l-.23 29h5.21l-.64-24.72c1.22-1.3 2.5-2.57 2.75-2.75.45-.34.39-1.33-.2-1.26a16.22 16.22 0 0 0-2.71 1.56l-1.08-17.39a1.72 1.72 0 0 0-1.4-.6 1.92 1.92 0 0 0-1.46.68z" fill="#5269a6"/>
        <path d="M789.26 94.16a.51.51 0 0 0-.18 0 16.22 16.22 0 0 0-2.71 1.56l-.48-7.73-.6-9.69a1.78 1.78 0 0 0-1-.55v45.11h2.88l-.63-24.73c.85-.91 1.73-1.78 2.27-2.29a5.82 5.82 0 0 1 .49-.45.76.76 0 0 0 .24-.34c.09-.33 0-.77-.28-.89z" fill="#a07561" opacity=".4" style="mix-blend-mode:multiply"/>
        <path d="M1222.72 119.71c0 1.52-5.42 2.75-12.1 2.75s-12.1-1.23-12.1-2.75 5.41-2.75 12.1-2.75 12.1 1.24 12.1 2.75z" fill="#d4d4d5" style="mix-blend-mode:multiply"/>
        <path d="M1233.12 39.66c7.67 21.48 3.8 59.73-17.83 59.73s-25.51-38.25-17.83-59.73c4.12-11.54 11.45-17.61 17.83-17.61s13.71 6.07 17.83 17.61z" fill="#5269a6"/>
        <path d="M1233.12 37.5c7.67 21.48 3.8 59.73-17.83 59.73s-25.51-38.24-17.83-59.73c4.12-11.54 11.45-17.6 17.83-17.6s13.71 6.09 17.83 17.6z" fill="#7d9ce6"/>
        <path d="M1233.12 37.99c-3.47-10-9.18-15.94-14.7-17.61 3.23 3.2 12.81 74.8-8.1 78.3a16 16 0 0 0 5 .79c21.6 0 25.47-39.37 17.8-61.48z" fill="#81e4a3" opacity=".4" style="mix-blend-mode:multiply"/>
        <path d="M1213.32 68.19l-.25 15.21a56.16 56.16 0 0 0-6-3.34c-.72-.08-.48.55.08 1 .4.29 3.8 3.24 5.84 5.29l-.28 33.91h6.29l-.77-28.86c1.48-1.52 3-3 3.33-3.21.55-.4.47-1.56-.24-1.48a19.94 19.94 0 0 0-3.28 1.83l-1.3-20.3a2.1 2.1 0 0 0-1.7-.71 2.33 2.33 0 0 0-1.72.66z" fill="#5269a6"/>
        <path d="M1221.58 86.68a.53.53 0 0 0-.22 0 19.94 19.94 0 0 0-3.28 1.83l-.55-9-.73-11.31a2.14 2.14 0 0 0-1.26-.65v52.67h3.46l-.75-28.87c1-1.06 2.08-2.09 2.74-2.68a6 6 0 0 1 .59-.52.93.93 0 0 0 .29-.41.84.84 0 0 0-.29-1.06z" fill="#a07561" opacity=".4" style="mix-blend-mode:multiply"/>
        <path d="M1073.86 117.16c0 .74-2.65 1.34-5.91 1.34s-5.91-.6-5.91-1.34 2.65-1.34 5.91-1.34 5.91.6 5.91 1.34z" fill="#d4d4d5" style="mix-blend-mode:multiply"/>
        <path d="M1078.93 78.07c3.75 10.49 1.86 29.17-8.7 29.17s-12.45-18.68-8.7-29.17c2-5.63 5.59-8.59 8.7-8.59s6.69 2.96 8.7 8.59z" fill="#5269a6"/>
        <path d="M1078.93 76.99c3.75 10.49 1.86 29.16-8.7 29.16s-12.45-18.67-8.7-29.16c2-5.63 5.59-8.59 8.7-8.59s6.69 2.99 8.7 8.59z" fill="#7d9ce6"/>
        <path d="M1078.93 77.26c-1.69-4.86-4.48-7.78-7.17-8.6 1.58 1.57 6.25 36.52-4 38.23a8 8 0 0 0 2.43.39c10.6 0 12.49-19.22 8.74-30.02z" fill="#81e4a3" opacity=".4" style="mix-blend-mode:multiply"/>
        <path d="M1069.27 91.99l-.12 7.43a26.76 26.76 0 0 0-2.92-1.63c-.34 0-.23.27 0 .46s1.86 1.59 2.85 2.59l-.13 16.55h3.07l-.37-14.09c.72-.74 1.48-1.47 1.62-1.57s.23-.76-.12-.72a10.39 10.39 0 0 0-1.6.89l-.55-9.91a1 1 0 0 0-.83-.34 1.14 1.14 0 0 0-.9.34z" fill="#5269a6"/>
        <path d="M1073.3 100.99h-.11a10.39 10.39 0 0 0-1.6.89l-.27-4.38-.32-5.51a1.07 1.07 0 0 0-.62-.31v25.71h1.7l-.37-14.1c.5-.51 1-1 1.34-1.3l.29-.26a.45.45 0 0 0 0-.71z" fill="#a07561" opacity=".4" style="mix-blend-mode:multiply"/>
        <path d="M966.61 108.6c0 1-1.81 1.83-4 1.83s-4-.82-4-1.83 1.81-1.83 4-1.83 4 .82 4 1.83z" fill="#999" opacity=".4" style="mix-blend-mode:multiply"/>
        <path d="M962.19 61.99c-.24.24-.71.15-1.06-.2-.34-.35-.43-.82-.2-1.06l12.2-12.14c.24-.23.71-.14 1.06.2.35.35.44.82.2 1.06zm.16-6c.31.22.31.78 0 1.25-.32.46-.84.66-1.16.45L944.7 46.42c-.32-.22-.32-.78 0-1.24.32-.47.84-.67 1.15-.45z" fill="#a07561"/>
        <path d="M962.19 61.99c-.24.24-.71.15-1.06-.2-.34-.35-.43-.82-.2-1.06l12.2-12.14c.24-.23.71-.14 1.06.2.35.35.44.82.2 1.06zm.16-6c.31.22.31.78 0 1.25-.32.46-.84.66-1.16.45L944.7 46.42c-.32-.22-.32-.78 0-1.24.32-.47.84-.67 1.15-.45z" fill="#5269a6"/>
        <path d="M964.59 108.09c0 .92-1.12 1.68-2.47 1.68-1.36 0-2.47-.76-2.47-1.68V24.24c0-.93 1.11-1.69 2.47-1.69 1.35 0 2.47.76 2.47 1.69z" fill="#5269a6"/>
        <path d="M981.2 20.53A20.52 20.52 0 1 1 960.68-.01a20.52 20.52 0 0 1 20.52 20.54z" fill="#7d9ce6"/>
        <path d="M969.6 2.06a20.52 20.52 0 0 1-18.09 30.22 20.37 20.37 0 0 1-8.92-2.06 20.52 20.52 0 1 0 27-28.16z" fill="#81e4a3" opacity=".4" style="mix-blend-mode:multiply"/>
        <path d="M983.23 46.86a8.37 8.37 0 1 1-8.37-8.37 8.37 8.37 0 0 1 8.37 8.37z" fill="#7d9ce6"/>
        <path d="M978.5 39.33a8.37 8.37 0 0 1-11 11.49 8.37 8.37 0 1 0 11-11.49z" fill="#81e4a3" opacity=".4" style="mix-blend-mode:multiply"/>
        <path d="M954.2 46.85a9.52 9.52 0 1 1-9.51-9.52 9.51 9.51 0 0 1 9.51 9.52z" fill="#7d9ce6"/>
        <path d="M948.82 38.29a9.5 9.5 0 0 1-12.52 13.05 9.51 9.51 0 1 0 12.52-13.05z" fill="#81e4a3" opacity=".4" style="mix-blend-mode:multiply"/>
        <path d="M737.08 112.57c0 .67-1.21 1.22-2.69 1.22s-2.69-.55-2.69-1.22 1.21-1.22 2.69-1.22 2.69.55 2.69 1.22z" fill="#999" opacity=".4" style="mix-blend-mode:multiply"/>
        <path d="M734.13 81.55c-.16.16-.47.09-.7-.14-.23-.23-.29-.55-.13-.71l8.12-8.08c.16-.16.47-.09.7.14.23.23.29.55.13.7zm.11-3.99c.21.15.21.52 0 .83-.21.31-.56.45-.77.3l-11-7.52a.62.62 0 0 1 0-.83c.22-.31.56-.45.77-.3z" fill="#a07561"/>
        <path d="M734.13 81.55c-.16.16-.47.09-.7-.14-.23-.23-.29-.55-.13-.71l8.12-8.08c.16-.16.47-.09.7.14.23.23.29.55.13.7zm.11-3.99c.21.15.21.52 0 .83-.21.31-.56.45-.77.3l-11-7.52a.62.62 0 0 1 0-.83c.22-.31.56-.45.77-.3z" fill="#5269a6"/>
        <path d="M735.73 112.23c0 .61-.74 1.12-1.64 1.12-.9 0-1.64-.51-1.64-1.12V56.41c0-.62.74-1.12 1.64-1.12.9 0 1.64.5 1.64 1.12z" fill="#5269a6"/>
        <path d="M746.79 53.99a13.66 13.66 0 1 1-13.66-13.66 13.66 13.66 0 0 1 13.66 13.66z" fill="#7d9ce6"/>
        <path d="M739.07 41.65a13.64 13.64 0 0 1-18 18.74 13.66 13.66 0 1 0 18-18.74z" fill="#81e4a3" opacity=".4" style="mix-blend-mode:multiply"/>
        <path d="M748.14 71.47a5.57 5.57 0 1 1-5.57-5.57 5.57 5.57 0 0 1 5.57 5.57z" fill="#7d9ce6"/>
        <path d="M745 66.46a5.57 5.57 0 0 1-4.91 8.2 5.45 5.45 0 0 1-2.42-.56 5.57 5.57 0 1 0 7.33-7.64z" fill="#81e4a3" opacity=".4" style="mix-blend-mode:multiply"/>
        <path d="M728.82 71.46a6.34 6.34 0 1 1-6.34-6.33 6.33 6.33 0 0 1 6.34 6.33z" fill="#7d9ce6"/>
        <path d="M725.24 65.76a6.34 6.34 0 0 1-5.59 9.33 6.35 6.35 0 0 1-2.75-.64 6.33 6.33 0 1 0 8.34-8.69z" fill="#81e4a3" opacity=".4" style="mix-blend-mode:multiply"/>
        <path fill="#6884d7" d="M761.6 111.7l-7.79-38.19-7.79 38.19h15.58z"/>
        <path fill="#757575" opacity=".4" style="mix-blend-mode:multiply" d="M750.55 111.7l3.26-38.19-7.79 38.19h4.53z"/>
        <path fill="#6884d7" d="M768.03 111.7l-5.58-27.34-5.58 27.34h11.16z"/>
        <path fill="#757575" opacity=".4" style="mix-blend-mode:multiply" d="M760.12 111.7l2.33-27.34-5.58 27.34h3.25z"/>
        <path fill="#6884d7" d="M1319.71 118.96l-7.79-38.19-7.79 38.19h15.58z"/>
        <path fill="#757575" opacity=".4" style="mix-blend-mode:multiply" d="M1308.66 118.96l3.26-38.19-7.79 38.19h4.53z"/>
        <path fill="#6884d7" d="M1326.14 118.96l-5.58-27.34-5.58 27.34h11.16z"/>
        <path fill="#757575" opacity=".4" style="mix-blend-mode:multiply" d="M1318.22 118.96l2.34-27.34-5.58 27.34h3.24z"/>
        <path fill="#6884d7" d="M1095.15 127.55l-7.79-38.19-7.8 38.19h15.59z"/>
        <path fill="#757575" opacity=".4" style="mix-blend-mode:multiply" d="M1084.1 127.55l3.26-38.19-7.8 38.19h4.54z"/>
        <path fill="#6884d7" d="M1101.57 127.55l-5.58-27.34-5.58 27.34h11.16z"/>
        <path fill="#757575" opacity=".4" style="mix-blend-mode:multiply" d="M1093.66 127.55l2.33-27.34-5.58 27.34h3.25z"/>
        <path fill="#6884d7" d="M818.57 119.99l9.97-42.16 9.96 42.16h-19.93z"/>
        <path fill="#589b95" opacity=".4" style="mix-blend-mode:multiply" d="M832.7 119.99l-4.16-42.16 9.96 42.16h-5.8z"/>
        <path fill="#6884d7" d="M810.37 119.99l7.13-30.18 7.13 30.18h-14.26z"/>
        <path fill="#4b8472" opacity=".4" style="mix-blend-mode:multiply" d="M820.48 119.99l-2.98-30.18 7.13 30.18h-4.15z"/>
        <path fill="#6884d7" d="M930.09 113.39L941 67.95l10.91 45.44h-21.82z"/>
        <path fill="#589b95" opacity=".4" style="mix-blend-mode:multiply" d="M945.56 113.39L941 67.95l10.91 45.44h-6.35z"/>
        <path fill="#6884d7" d="M921.11 113.39l7.8-32.53 7.81 32.53h-15.61z"/>
        <path fill="#4b8472" opacity=".4" style="mix-blend-mode:multiply" d="M932.18 113.39l-3.27-32.53 7.81 32.53h-4.54z"/>
        <path fill="#6884d7" d="M1239.86 131.22l10.91-45.43 10.91 45.43h-21.82z"/>
        <path fill="#589b95" opacity=".4" style="mix-blend-mode:multiply" d="M1255.33 131.22l-4.56-45.43 10.91 45.43h-6.35z"/>
        <path fill="#6884d7" d="M1230.87 131.22l7.81-32.53 7.81 32.53h-15.62z"/>
        <path fill="#4b8472" opacity=".4" style="mix-blend-mode:multiply" d="M1241.95 131.22l-3.27-32.53 7.81 32.53h-4.54z"/>
        <path fill="#6884d7" d="M980.68 114.93l14.33-60.63 14.32 60.63h-28.65z"/>
        <path fill="#589b95" opacity=".4" style="mix-blend-mode:multiply" d="M1001 114.93l-5.99-60.63 14.32 60.63H1001z"/>
        <path fill="#6884d7" d="M968.88 114.93l10.26-43.4 10.25 43.4h-20.51z"/>
        <path fill="#4b8472" opacity=".4" style="mix-blend-mode:multiply" d="M983.42 114.93l-4.28-43.4 10.25 43.4h-5.97z"/>
        <text transform="translate(725.36 62.11)" opacity=".1" font-size="22.23" font-family="ProximaNova-Regular, Proxima Nova">
            %
        </text>
        <text transform="translate(950.37 31.25)" opacity=".1" font-size="31.45" font-family="ProximaNova-Regular, Proxima Nova">
            %
        </text>
        <text transform="translate(719.01 75.02)" opacity=".1" font-size="9.63" font-family="ProximaNova-Regular, Proxima Nova">
            %
        </text>
        <text transform="translate(971.61 50.55)" opacity=".1" font-size="9.63" font-family="ProximaNova-Regular, Proxima Nova">
            %
        </text>
        <text transform="translate(939.71 51.92)" opacity=".1" font-size="13.81" font-family="ProximaNova-Regular, Proxima Nova">
            %
        </text>
        <path d="M1288.8 118.64c0 1-1.81 1.83-4 1.83s-4-.82-4-1.83 1.8-1.83 4-1.83 4 .82 4 1.83z" fill="#999" opacity=".4" style="mix-blend-mode:multiply"/>
        <path d="M1284.37 72.04c-.23.23-.71.14-1-.2-.35-.34-.44-.82-.2-1l12.2-12.14c.24-.24.71-.15 1 .2.35.35.43.82.2 1zm.16-5.99c.32.22.32.78 0 1.24-.32.47-.84.67-1.16.45l-16.47-11.3c-.32-.22-.32-.78 0-1.25s.84-.67 1.15-.45z" fill="#a07561"/>
        <path d="M1284.37 72.04c-.23.23-.71.14-1-.2-.35-.34-.44-.82-.2-1l12.2-12.14c.24-.24.71-.15 1 .2.35.35.43.82.2 1zm.16-5.99c.32.22.32.78 0 1.24-.32.47-.84.67-1.16.45l-16.47-11.3c-.32-.22-.32-.78 0-1.25s.84-.67 1.15-.45z" fill="#5269a6"/>
        <path d="M1286.77 118.12c0 .93-1.11 1.69-2.47 1.69-1.35 0-2.46-.76-2.46-1.69V34.27c0-.93 1.11-1.68 2.46-1.68 1.36 0 2.47.75 2.47 1.68z" fill="#5269a6"/>
        <path d="M1303.39 30.56a20.53 20.53 0 1 1-20.52-20.52 20.53 20.53 0 0 1 20.52 20.52z" fill="#7d9ce6"/>
        <path d="M1291.79 12.1a20.5 20.5 0 0 1-27 28.16 20.52 20.52 0 1 0 27-28.16z" fill="#81e4a3" opacity=".4" style="mix-blend-mode:multiply"/>
        <path d="M1305.42 56.9a8.37 8.37 0 1 1-8.37-8.37 8.37 8.37 0 0 1 8.37 8.37z" fill="#7d9ce6"/>
        <path d="M1300.69 49.37a8.37 8.37 0 0 1-7.38 12.32 8.25 8.25 0 0 1-3.64-.84 8.37 8.37 0 1 0 11-11.48z" fill="#81e4a3" opacity=".4" style="mix-blend-mode:multiply"/>
        <path d="M1276.39 56.88a9.52 9.52 0 1 1-9.52-9.51 9.52 9.52 0 0 1 9.52 9.51z" fill="#7d9ce6"/>
        <path d="M1271 48.33a9.4 9.4 0 0 1 1.13 4.49 9.51 9.51 0 0 1-13.65 8.56 9.51 9.51 0 1 0 12.52-13z" fill="#81e4a3" opacity=".4" style="mix-blend-mode:multiply"/>
        <text transform="translate(1272.56 41.29)" opacity=".1" font-size="31.45" font-family="ProximaNova-Regular, Proxima Nova">
            %
        </text>
        <text transform="translate(1293.79 60.59)" opacity=".1" font-size="9.63" font-family="ProximaNova-Regular, Proxima Nova">
            %
        </text>
        <text transform="translate(1261.9 61.96)" opacity=".1" font-size="13.81" font-family="ProximaNova-Regular, Proxima Nova">
            %
        </text>
        <text transform="translate(739.65 74.6)" opacity=".1" font-size="8.4" font-family="ProximaNova-Regular, Proxima Nova">
            %
        </text>
    </g>
</svg>
