<svg id="Layer_1" data-name="Layer 1" xmlns="http://www.w3.org/2000/svg" viewBox="0 0 196 171.45">
    <defs>
        <style>
            .cls-1{fill:#b32221}
        </style>
    </defs>
    <title>
        Artboard 1
    </title>
    <path class="cls-1" d="M98 0a7.27 7.27 0 0 0-6.4 3.42L1 160.38a7.38 7.38 0 0 0 6.38 11.07h181.24a7.38 7.38 0 0 0 6.38-11.07l-90.62-157A7.26 7.26 0 0 0 98 0zm1.4 24.28l75.06 130a1.6 1.6 0 0 1-1.39 2.4H22.93a1.6 1.6 0 0 1-1.39-2.4l75.07-130a1.61 1.61 0 0 1 2.78 0zm-2 36.48a7.58 7.58 0 0 0-5.78 2.34 9.27 9.27 0 0 0-2.19 6.53c0 2.06.16 5.43.46 10.14l1.62 27.16a23.32 23.32 0 0 0 1.5 7 3.8 3.8 0 0 0 3.77 2.3 4 4 0 0 0 3.84-2.37 19.45 19.45 0 0 0 1.51-6.81l2.18-27.86a67.6 67.6 0 0 0 .35-6.76q0-5.66-1.46-8.65c-1-2-2.9-3-5.8-3zM97 125a7.49 7.49 0 0 0-7.57 7.52 7 7 0 0 0 2.29 5.57 8 8 0 0 0 5.38 2 7.7 7.7 0 0 0 5.3-2 7 7 0 0 0 2.26-5.55 7.14 7.14 0 0 0-2.25-5.32A7.43 7.43 0 0 0 97 125z"/>
</svg>
